<svg xmlns:xlink="http://www.w3.org/1999/xlink" width="114.077ex" height="5.176ex" style="font-size: 15px; vertical-align: -2.005ex;" viewBox="0 -1365.4 49116.5 2228.5" role="img" focusable="false" xmlns="http://www.w3.org/2000/svg">
<defs>
<path stroke-width="1" id="E1-MJMAIN-28" d="M94 250Q94 319 104 381T127 488T164 576T202 643T244 695T277 729T302 750H315H319Q333 750 333 741Q333 738 316 720T275 667T226 581T184 443T167 250T184 58T225 -81T274 -167T316 -220T333 -241Q333 -250 318 -250H315H302L274 -226Q180 -141 137 -14T94 250Z"></path>
<path stroke-width="1" id="E1-MJMAIN-38" d="M70 417T70 494T124 618T248 666Q319 666 374 624T429 515Q429 485 418 459T392 417T361 389T335 371T324 363L338 354Q352 344 366 334T382 323Q457 264 457 174Q457 95 399 37T249 -22Q159 -22 101 29T43 155Q43 263 172 335L154 348Q133 361 127 368Q70 417 70 494ZM286 386L292 390Q298 394 301 396T311 403T323 413T334 425T345 438T355 454T364 471T369 491T371 513Q371 556 342 586T275 624Q268 625 242 625Q201 625 165 599T128 534Q128 511 141 492T167 463T217 431Q224 426 228 424L286 386ZM250 21Q308 21 350 55T392 137Q392 154 387 169T375 194T353 216T330 234T301 253T274 270Q260 279 244 289T218 306L210 311Q204 311 181 294T133 239T107 157Q107 98 150 60T250 21Z"></path>
<path stroke-width="1" id="E1-MJMAIN-29" d="M60 749L64 750Q69 750 74 750H86L114 726Q208 641 251 514T294 250Q294 182 284 119T261 12T224 -76T186 -143T145 -194T113 -227T90 -246Q87 -249 86 -250H74Q66 -250 63 -250T58 -247T55 -238Q56 -237 66 -225Q221 -64 221 250T66 725Q56 737 55 738Q55 746 60 749Z"></path>
<path stroke-width="1" id="E1-MJMATHI-47" d="M50 252Q50 367 117 473T286 641T490 704Q580 704 633 653Q642 643 648 636T656 626L657 623Q660 623 684 649Q691 655 699 663T715 679T725 690L740 705H746Q760 705 760 698Q760 694 728 561Q692 422 692 421Q690 416 687 415T669 413H653Q647 419 647 422Q647 423 648 429T650 449T651 481Q651 552 619 605T510 659Q492 659 471 656T418 643T357 615T294 567T236 496T189 394T158 260Q156 242 156 221Q156 173 170 136T206 79T256 45T308 28T353 24Q407 24 452 47T514 106Q517 114 529 161T541 214Q541 222 528 224T468 227H431Q425 233 425 235T427 254Q431 267 437 273H454Q494 271 594 271Q634 271 659 271T695 272T707 272Q721 272 721 263Q721 261 719 249Q714 230 709 228Q706 227 694 227Q674 227 653 224Q646 221 643 215T629 164Q620 131 614 108Q589 6 586 3Q584 1 581 1Q571 1 553 21T530 52Q530 53 528 52T522 47Q448 -22 322 -22Q201 -22 126 55T50 252Z"></path>
<path stroke-width="1" id="E1-MJMATHI-78" d="M52 289Q59 331 106 386T222 442Q257 442 286 424T329 379Q371 442 430 442Q467 442 494 420T522 361Q522 332 508 314T481 292T458 288Q439 288 427 299T415 328Q415 374 465 391Q454 404 425 404Q412 404 406 402Q368 386 350 336Q290 115 290 78Q290 50 306 38T341 26Q378 26 414 59T463 140Q466 150 469 151T485 153H489Q504 153 504 145Q504 144 502 134Q486 77 440 33T333 -11Q263 -11 227 52Q186 -10 133 -10H127Q78 -10 57 16T35 71Q35 103 54 123T99 143Q142 143 142 101Q142 81 130 66T107 46T94 41L91 40Q91 39 97 36T113 29T132 26Q168 26 194 71Q203 87 217 139T245 247T261 313Q266 340 266 352Q266 380 251 392T217 404Q177 404 142 372T93 290Q91 281 88 280T72 278H58Q52 284 52 289Z"></path>
<path stroke-width="1" id="E1-MJMAIN-3D" d="M56 347Q56 360 70 367H707Q722 359 722 347Q722 336 708 328L390 327H72Q56 332 56 347ZM56 153Q56 168 72 173H708Q722 163 722 153Q722 140 707 133H70Q56 140 56 153Z"></path>
<path stroke-width="1" id="E1-MJMAIN-5B" d="M118 -250V750H255V710H158V-210H255V-250H118Z"></path>
<path stroke-width="1" id="E1-MJMATHI-66" d="M118 -162Q120 -162 124 -164T135 -167T147 -168Q160 -168 171 -155T187 -126Q197 -99 221 27T267 267T289 382V385H242Q195 385 192 387Q188 390 188 397L195 425Q197 430 203 430T250 431Q298 431 298 432Q298 434 307 482T319 540Q356 705 465 705Q502 703 526 683T550 630Q550 594 529 578T487 561Q443 561 443 603Q443 622 454 636T478 657L487 662Q471 668 457 668Q445 668 434 658T419 630Q412 601 403 552T387 469T380 433Q380 431 435 431Q480 431 487 430T498 424Q499 420 496 407T491 391Q489 386 482 386T428 385H372L349 263Q301 15 282 -47Q255 -132 212 -173Q175 -205 139 -205Q107 -205 81 -186T55 -132Q55 -95 76 -78T118 -61Q162 -61 162 -103Q162 -122 151 -136T127 -157L118 -162Z"></path>
<path stroke-width="1" id="E1-MJMAIN-2B" d="M56 237T56 250T70 270H369V420L370 570Q380 583 389 583Q402 583 409 568V270H707Q722 262 722 250T707 230H409V-68Q401 -82 391 -82H389H387Q375 -82 369 -68V230H70Q56 237 56 250Z"></path>
<path stroke-width="1" id="E1-MJMAIN-31" d="M213 578L200 573Q186 568 160 563T102 556H83V602H102Q149 604 189 617T245 641T273 663Q275 666 285 666Q294 666 302 660V361L303 61Q310 54 315 52T339 48T401 46H427V0H416Q395 3 257 3Q121 3 100 0H88V46H114Q136 46 152 46T177 47T193 50T201 52T207 57T213 61V578Z"></path>
<path stroke-width="1" id="E1-MJMAIN-2C" d="M78 35T78 60T94 103T137 121Q165 121 187 96T210 8Q210 -27 201 -60T180 -117T154 -158T130 -185T117 -194Q113 -194 104 -185T95 -172Q95 -168 106 -156T131 -126T157 -76T173 -3V9L172 8Q170 7 167 6T161 3T152 1T140 0Q113 0 96 17Z"></path>
<path stroke-width="1" id="E1-MJMATHI-79" d="M21 287Q21 301 36 335T84 406T158 442Q199 442 224 419T250 355Q248 336 247 334Q247 331 231 288T198 191T182 105Q182 62 196 45T238 27Q261 27 281 38T312 61T339 94Q339 95 344 114T358 173T377 247Q415 397 419 404Q432 431 462 431Q475 431 483 424T494 412T496 403Q496 390 447 193T391 -23Q363 -106 294 -155T156 -205Q111 -205 77 -183T43 -117Q43 -95 50 -80T69 -58T89 -48T106 -45Q150 -45 150 -87Q150 -107 138 -122T115 -142T102 -147L99 -148Q101 -153 118 -160T152 -167H160Q177 -167 186 -165Q219 -156 247 -127T290 -65T313 -9T321 21L315 17Q309 13 296 6T270 -6Q250 -11 231 -11Q185 -11 150 11T104 82Q103 89 103 113Q103 170 138 262T173 379Q173 380 173 381Q173 390 173 393T169 400T158 404H154Q131 404 112 385T82 344T65 302T57 280Q55 278 41 278H27Q21 284 21 287Z"></path>
<path stroke-width="1" id="E1-MJMAIN-2212" d="M84 237T84 250T98 270H679Q694 262 694 250T679 230H98Q84 237 84 250Z"></path>
<path stroke-width="1" id="E1-MJMAIN-32" d="M109 429Q82 429 66 447T50 491Q50 562 103 614T235 666Q326 666 387 610T449 465Q449 422 429 383T381 315T301 241Q265 210 201 149L142 93L218 92Q375 92 385 97Q392 99 409 186V189H449V186Q448 183 436 95T421 3V0H50V19V31Q50 38 56 46T86 81Q115 113 136 137Q145 147 170 174T204 211T233 244T261 278T284 308T305 340T320 369T333 401T340 431T343 464Q343 527 309 573T212 619Q179 619 154 602T119 569T109 550Q109 549 114 549Q132 549 151 535T170 489Q170 464 154 447T109 429Z"></path>
<path stroke-width="1" id="E1-MJMAIN-2217" d="M229 286Q216 420 216 436Q216 454 240 464Q241 464 245 464T251 465Q263 464 273 456T283 436Q283 419 277 356T270 286L328 328Q384 369 389 372T399 375Q412 375 423 365T435 338Q435 325 425 315Q420 312 357 282T289 250L355 219L425 184Q434 175 434 161Q434 146 425 136T401 125Q393 125 383 131T328 171L270 213Q283 79 283 63Q283 53 276 44T250 35Q231 35 224 44T216 63Q216 80 222 143T229 213L171 171Q115 130 110 127Q106 124 100 124Q87 124 76 134T64 161Q64 166 64 169T67 175T72 181T81 188T94 195T113 204T138 215T170 230T210 250L74 315Q65 324 65 338Q65 353 74 363T98 374Q106 374 116 368T171 328L229 286Z"></path>
<path stroke-width="1" id="E1-MJMAIN-5D" d="M22 710V750H159V-250H22V-210H119V710H22Z"></path>
</defs>
<g stroke="currentColor" fill="currentColor" stroke-width="0" transform="matrix(1 0 0 -1 0 0)">
<g transform="translate(47836,0)">
<g id="mjx-eqn-8" transform="translate(0,450)">
 <use xlink:href="#E1-MJMAIN-28"></use>
 <use xlink:href="#E1-MJMAIN-38" x="389" y="0"></use>
 <use xlink:href="#E1-MJMAIN-29" x="890" y="0"></use>
</g>
</g>
<g transform="translate(167,0)">
<g transform="translate(-11,0)">
<g transform="translate(0,450)">
 <use xlink:href="#E1-MJMATHI-47" x="0" y="0"></use>
 <use transform="scale(0.707)" xlink:href="#E1-MJMATHI-78" x="1112" y="-213"></use>
 <use xlink:href="#E1-MJMAIN-3D" x="1569" y="0"></use>
 <use xlink:href="#E1-MJMAIN-5B" x="2625" y="0"></use>
 <use xlink:href="#E1-MJMATHI-66" x="2903" y="0"></use>
 <use xlink:href="#E1-MJMAIN-28" x="3454" y="0"></use>
 <use xlink:href="#E1-MJMATHI-78" x="3843" y="0"></use>
 <use xlink:href="#E1-MJMAIN-2B" x="4638" y="0"></use>
 <use xlink:href="#E1-MJMAIN-31" x="5639" y="0"></use>
 <use xlink:href="#E1-MJMAIN-2C" x="6139" y="0"></use>
 <use xlink:href="#E1-MJMATHI-79" x="6584" y="0"></use>
 <use xlink:href="#E1-MJMAIN-2212" x="7304" y="0"></use>
 <use xlink:href="#E1-MJMAIN-31" x="8305" y="0"></use>
 <use xlink:href="#E1-MJMAIN-29" x="8805" y="0"></use>
 <use xlink:href="#E1-MJMAIN-2B" x="9417" y="0"></use>
 <use xlink:href="#E1-MJMAIN-32" x="10418" y="0"></use>
 <use xlink:href="#E1-MJMAIN-2217" x="11141" y="0"></use>
 <use xlink:href="#E1-MJMATHI-66" x="11863" y="0"></use>
 <use xlink:href="#E1-MJMAIN-28" x="12414" y="0"></use>
 <use xlink:href="#E1-MJMATHI-78" x="12803" y="0"></use>
 <use xlink:href="#E1-MJMAIN-2B" x="13598" y="0"></use>
 <use xlink:href="#E1-MJMAIN-31" x="14599" y="0"></use>
 <use xlink:href="#E1-MJMAIN-2C" x="15099" y="0"></use>
 <use xlink:href="#E1-MJMATHI-79" x="15544" y="0"></use>
 <use xlink:href="#E1-MJMAIN-29" x="16042" y="0"></use>
 <use xlink:href="#E1-MJMAIN-2B" x="16654" y="0"></use>
 <use xlink:href="#E1-MJMATHI-66" x="17654" y="0"></use>
 <use xlink:href="#E1-MJMAIN-28" x="18205" y="0"></use>
 <use xlink:href="#E1-MJMATHI-78" x="18594" y="0"></use>
 <use xlink:href="#E1-MJMAIN-2B" x="19389" y="0"></use>
 <use xlink:href="#E1-MJMAIN-31" x="20390" y="0"></use>
 <use xlink:href="#E1-MJMAIN-2C" x="20890" y="0"></use>
 <use xlink:href="#E1-MJMATHI-79" x="21335" y="0"></use>
 <use xlink:href="#E1-MJMAIN-2B" x="22055" y="0"></use>
 <use xlink:href="#E1-MJMAIN-31" x="23056" y="0"></use>
 <use xlink:href="#E1-MJMAIN-29" x="23556" y="0"></use>
 <use xlink:href="#E1-MJMAIN-5D" x="23946" y="0"></use>
 <use xlink:href="#E1-MJMAIN-2212" x="24447" y="0"></use>
 <use xlink:href="#E1-MJMAIN-5B" x="25447" y="0"></use>
 <use xlink:href="#E1-MJMATHI-66" x="25726" y="0"></use>
 <use xlink:href="#E1-MJMAIN-28" x="26276" y="0"></use>
 <use xlink:href="#E1-MJMATHI-78" x="26666" y="0"></use>
 <use xlink:href="#E1-MJMAIN-2212" x="27461" y="0"></use>
 <use xlink:href="#E1-MJMAIN-31" x="28461" y="0"></use>
 <use xlink:href="#E1-MJMAIN-2C" x="28962" y="0"></use>
 <use xlink:href="#E1-MJMATHI-79" x="29407" y="0"></use>
 <use xlink:href="#E1-MJMAIN-2212" x="30127" y="0"></use>
 <use xlink:href="#E1-MJMAIN-31" x="31127" y="0"></use>
 <use xlink:href="#E1-MJMAIN-29" x="31628" y="0"></use>
 <use xlink:href="#E1-MJMAIN-2B" x="32240" y="0"></use>
 <use xlink:href="#E1-MJMAIN-32" x="33240" y="0"></use>
 <use xlink:href="#E1-MJMAIN-2217" x="33963" y="0"></use>
 <use xlink:href="#E1-MJMATHI-66" x="34686" y="0"></use>
 <use xlink:href="#E1-MJMAIN-28" x="35236" y="0"></use>
 <use xlink:href="#E1-MJMATHI-78" x="35626" y="0"></use>
 <use xlink:href="#E1-MJMAIN-2212" x="36421" y="0"></use>
 <use xlink:href="#E1-MJMAIN-31" x="37421" y="0"></use>
 <use xlink:href="#E1-MJMAIN-2C" x="37922" y="0"></use>
 <use xlink:href="#E1-MJMATHI-79" x="38367" y="0"></use>
 <use xlink:href="#E1-MJMAIN-29" x="38864" y="0"></use>
 <use xlink:href="#E1-MJMAIN-2B" x="39476" y="0"></use>
 <use xlink:href="#E1-MJMATHI-66" x="40477" y="0"></use>
 <use xlink:href="#E1-MJMAIN-28" x="41027" y="0"></use>
 <use xlink:href="#E1-MJMATHI-78" x="41417" y="0"></use>
 <use xlink:href="#E1-MJMAIN-2212" x="42212" y="0"></use>
 <use xlink:href="#E1-MJMAIN-31" x="43212" y="0"></use>
 <use xlink:href="#E1-MJMAIN-2C" x="43713" y="0"></use>
 <use xlink:href="#E1-MJMATHI-79" x="44158" y="0"></use>
 <use xlink:href="#E1-MJMAIN-2B" x="44878" y="0"></use>
 <use xlink:href="#E1-MJMAIN-31" x="45878" y="0"></use>
 <use xlink:href="#E1-MJMAIN-29" x="46379" y="0"></use>
 <use xlink:href="#E1-MJMAIN-5D" x="46768" y="0"></use>
</g>
</g>
</g>
</g>
</svg>