<?xml version="1.0" encoding="utf-8" standalone="no"?>
<!DOCTYPE svg PUBLIC "-//W3C//DTD SVG 1.1//EN"
  "http://www.w3.org/Graphics/SVG/1.1/DTD/svg11.dtd">
<!-- Created with matplotlib (https://matplotlib.org/) -->
<svg height="194.158125pt" version="1.1" viewBox="0 0 539.503125 194.158125" width="539.503125pt" xmlns="http://www.w3.org/2000/svg" xmlns:xlink="http://www.w3.org/1999/xlink">
 <defs>
  <style type="text/css">
*{stroke-linecap:butt;stroke-linejoin:round;}
  </style>
 </defs>
 <g id="figure_1">
  <g id="patch_1">
   <path d="M 0 194.158125 
L 539.503125 194.158125 
L 539.503125 0 
L 0 0 
z
" style="fill:none;"/>
  </g>
  <g id="axes_1">
   <g id="patch_2">
    <path d="M 30.103125 170.28 
L 177.809007 170.28 
L 177.809007 7.2 
L 30.103125 7.2 
z
" style="fill:#ffffff;"/>
   </g>
   <g id="matplotlib.axis_1">
    <g id="xtick_1">
     <g id="line2d_1">
      <defs>
       <path d="M 0 0 
L 0 3.5 
" id="m3fed1d43ac" style="stroke:#000000;stroke-width:0.8;"/>
      </defs>
      <g>
       <use style="stroke:#000000;stroke-width:0.8;" x="36.817029" xlink:href="#m3fed1d43ac" y="170.28"/>
      </g>
     </g>
     <g id="text_1">
      <!-- −2 -->
      <defs>
       <path d="M 10.59375 35.5 
L 73.1875 35.5 
L 73.1875 27.203125 
L 10.59375 27.203125 
z
" id="DejaVuSans-8722"/>
       <path d="M 19.1875 8.296875 
L 53.609375 8.296875 
L 53.609375 0 
L 7.328125 0 
L 7.328125 8.296875 
Q 12.9375 14.109375 22.625 23.890625 
Q 32.328125 33.6875 34.8125 36.53125 
Q 39.546875 41.84375 41.421875 45.53125 
Q 43.3125 49.21875 43.3125 52.78125 
Q 43.3125 58.59375 39.234375 62.25 
Q 35.15625 65.921875 28.609375 65.921875 
Q 23.96875 65.921875 18.8125 64.3125 
Q 13.671875 62.703125 7.8125 59.421875 
L 7.8125 69.390625 
Q 13.765625 71.78125 18.9375 73 
Q 24.125 74.21875 28.421875 74.21875 
Q 39.75 74.21875 46.484375 68.546875 
Q 53.21875 62.890625 53.21875 53.421875 
Q 53.21875 48.921875 51.53125 44.890625 
Q 49.859375 40.875 45.40625 35.40625 
Q 44.1875 33.984375 37.640625 27.21875 
Q 31.109375 20.453125 19.1875 8.296875 
z
" id="DejaVuSans-50"/>
      </defs>
      <g transform="translate(29.445935 184.878438)scale(0.1 -0.1)">
       <use xlink:href="#DejaVuSans-8722"/>
       <use x="83.789062" xlink:href="#DejaVuSans-50"/>
      </g>
     </g>
    </g>
    <g id="xtick_2">
     <g id="line2d_2">
      <g>
       <use style="stroke:#000000;stroke-width:0.8;" x="104.124334" xlink:href="#m3fed1d43ac" y="170.28"/>
      </g>
     </g>
     <g id="text_2">
      <!-- 0 -->
      <defs>
       <path d="M 31.78125 66.40625 
Q 24.171875 66.40625 20.328125 58.90625 
Q 16.5 51.421875 16.5 36.375 
Q 16.5 21.390625 20.328125 13.890625 
Q 24.171875 6.390625 31.78125 6.390625 
Q 39.453125 6.390625 43.28125 13.890625 
Q 47.125 21.390625 47.125 36.375 
Q 47.125 51.421875 43.28125 58.90625 
Q 39.453125 66.40625 31.78125 66.40625 
z
M 31.78125 74.21875 
Q 44.046875 74.21875 50.515625 64.515625 
Q 56.984375 54.828125 56.984375 36.375 
Q 56.984375 17.96875 50.515625 8.265625 
Q 44.046875 -1.421875 31.78125 -1.421875 
Q 19.53125 -1.421875 13.0625 8.265625 
Q 6.59375 17.96875 6.59375 36.375 
Q 6.59375 54.828125 13.0625 64.515625 
Q 19.53125 74.21875 31.78125 74.21875 
z
" id="DejaVuSans-48"/>
      </defs>
      <g transform="translate(100.943084 184.878438)scale(0.1 -0.1)">
       <use xlink:href="#DejaVuSans-48"/>
      </g>
     </g>
    </g>
    <g id="xtick_3">
     <g id="line2d_3">
      <g>
       <use style="stroke:#000000;stroke-width:0.8;" x="171.43164" xlink:href="#m3fed1d43ac" y="170.28"/>
      </g>
     </g>
     <g id="text_3">
      <!-- 2 -->
      <g transform="translate(168.25039 184.878438)scale(0.1 -0.1)">
       <use xlink:href="#DejaVuSans-50"/>
      </g>
     </g>
    </g>
   </g>
   <g id="matplotlib.axis_2">
    <g id="ytick_1">
     <g id="line2d_4">
      <defs>
       <path d="M 0 0 
L -3.5 0 
" id="m4405bc6a27" style="stroke:#000000;stroke-width:0.8;"/>
      </defs>
      <g>
       <use style="stroke:#000000;stroke-width:0.8;" x="30.103125" xlink:href="#m4405bc6a27" y="162.867273"/>
      </g>
     </g>
     <g id="text_4">
      <!-- 0.0 -->
      <defs>
       <path d="M 10.6875 12.40625 
L 21 12.40625 
L 21 0 
L 10.6875 0 
z
" id="DejaVuSans-46"/>
      </defs>
      <g transform="translate(7.2 166.666491)scale(0.1 -0.1)">
       <use xlink:href="#DejaVuSans-48"/>
       <use x="63.623047" xlink:href="#DejaVuSans-46"/>
       <use x="95.410156" xlink:href="#DejaVuSans-48"/>
      </g>
     </g>
    </g>
    <g id="ytick_2">
     <g id="line2d_5">
      <g>
       <use style="stroke:#000000;stroke-width:0.8;" x="30.103125" xlink:href="#m4405bc6a27" y="125.803636"/>
      </g>
     </g>
     <g id="text_5">
      <!-- 0.5 -->
      <defs>
       <path d="M 10.796875 72.90625 
L 49.515625 72.90625 
L 49.515625 64.59375 
L 19.828125 64.59375 
L 19.828125 46.734375 
Q 21.96875 47.46875 24.109375 47.828125 
Q 26.265625 48.1875 28.421875 48.1875 
Q 40.625 48.1875 47.75 41.5 
Q 54.890625 34.8125 54.890625 23.390625 
Q 54.890625 11.625 47.5625 5.09375 
Q 40.234375 -1.421875 26.90625 -1.421875 
Q 22.3125 -1.421875 17.546875 -0.640625 
Q 12.796875 0.140625 7.71875 1.703125 
L 7.71875 11.625 
Q 12.109375 9.234375 16.796875 8.0625 
Q 21.484375 6.890625 26.703125 6.890625 
Q 35.15625 6.890625 40.078125 11.328125 
Q 45.015625 15.765625 45.015625 23.390625 
Q 45.015625 31 40.078125 35.4375 
Q 35.15625 39.890625 26.703125 39.890625 
Q 22.75 39.890625 18.8125 39.015625 
Q 14.890625 38.140625 10.796875 36.28125 
z
" id="DejaVuSans-53"/>
      </defs>
      <g transform="translate(7.2 129.602855)scale(0.1 -0.1)">
       <use xlink:href="#DejaVuSans-48"/>
       <use x="63.623047" xlink:href="#DejaVuSans-46"/>
       <use x="95.410156" xlink:href="#DejaVuSans-53"/>
      </g>
     </g>
    </g>
    <g id="ytick_3">
     <g id="line2d_6">
      <g>
       <use style="stroke:#000000;stroke-width:0.8;" x="30.103125" xlink:href="#m4405bc6a27" y="88.74"/>
      </g>
     </g>
     <g id="text_6">
      <!-- 1.0 -->
      <defs>
       <path d="M 12.40625 8.296875 
L 28.515625 8.296875 
L 28.515625 63.921875 
L 10.984375 60.40625 
L 10.984375 69.390625 
L 28.421875 72.90625 
L 38.28125 72.90625 
L 38.28125 8.296875 
L 54.390625 8.296875 
L 54.390625 0 
L 12.40625 0 
z
" id="DejaVuSans-49"/>
      </defs>
      <g transform="translate(7.2 92.539219)scale(0.1 -0.1)">
       <use xlink:href="#DejaVuSans-49"/>
       <use x="63.623047" xlink:href="#DejaVuSans-46"/>
       <use x="95.410156" xlink:href="#DejaVuSans-48"/>
      </g>
     </g>
    </g>
    <g id="ytick_4">
     <g id="line2d_7">
      <g>
       <use style="stroke:#000000;stroke-width:0.8;" x="30.103125" xlink:href="#m4405bc6a27" y="51.676364"/>
      </g>
     </g>
     <g id="text_7">
      <!-- 1.5 -->
      <g transform="translate(7.2 55.475582)scale(0.1 -0.1)">
       <use xlink:href="#DejaVuSans-49"/>
       <use x="63.623047" xlink:href="#DejaVuSans-46"/>
       <use x="95.410156" xlink:href="#DejaVuSans-53"/>
      </g>
     </g>
    </g>
    <g id="ytick_5">
     <g id="line2d_8">
      <g>
       <use style="stroke:#000000;stroke-width:0.8;" x="30.103125" xlink:href="#m4405bc6a27" y="14.612727"/>
      </g>
     </g>
     <g id="text_8">
      <!-- 2.0 -->
      <g transform="translate(7.2 18.411946)scale(0.1 -0.1)">
       <use xlink:href="#DejaVuSans-50"/>
       <use x="63.623047" xlink:href="#DejaVuSans-46"/>
       <use x="95.410156" xlink:href="#DejaVuSans-48"/>
      </g>
     </g>
    </g>
   </g>
   <g id="line2d_9">
    <path clip-path="url(#p676e027378)" d="M 36.817029 14.612727 
L 40.855467 31.869556 
L 44.557369 46.750606 
L 48.259271 60.734716 
L 51.961173 73.821886 
L 55.326538 84.940977 
L 58.691903 95.318795 
L 62.057268 104.955341 
L 65.086097 112.994444 
L 68.114926 120.433115 
L 71.143755 127.271356 
L 73.836047 132.845727 
L 76.528339 137.945684 
L 79.220631 142.571225 
L 81.912924 146.722353 
L 84.268679 149.965421 
L 86.624435 152.845265 
L 88.980191 155.361886 
L 90.99941 157.229894 
L 93.018629 158.831043 
L 95.037848 160.165334 
L 97.057067 161.232766 
L 99.076287 162.033341 
L 101.095506 162.567057 
L 103.114725 162.833915 
L 105.133944 162.833915 
L 107.153163 162.567057 
L 109.172382 162.033341 
L 111.191602 161.232766 
L 113.210821 160.165334 
L 115.23004 158.831043 
L 117.249259 157.229894 
L 119.268478 155.361886 
L 121.624234 152.845265 
L 123.97999 149.965421 
L 126.335745 146.722353 
L 128.691501 143.116061 
L 131.383793 138.549821 
L 134.076085 133.509166 
L 136.768378 127.994097 
L 139.46067 122.004614 
L 142.489499 114.699371 
L 145.518327 106.793697 
L 148.547156 98.287593 
L 151.912521 88.132156 
L 155.277887 77.235447 
L 158.643252 65.597465 
L 162.345154 51.939515 
L 166.047056 37.384625 
L 169.748957 21.932795 
L 171.095104 16.091566 
L 171.095104 16.091566 
" style="fill:none;stroke:#1f77b4;stroke-linecap:square;stroke-width:1.5;"/>
   </g>
   <g id="line2d_10">
    <path clip-path="url(#p676e027378)" d="M 53.643855 79.474091 
L 137.777987 125.803636 
" style="fill:none;stroke:#800080;stroke-dasharray:5.55,2.4;stroke-dashoffset:0;stroke-width:1.5;"/>
   </g>
   <g id="patch_3">
    <path d="M 30.103125 170.28 
L 30.103125 7.2 
" style="fill:none;stroke:#000000;stroke-linecap:square;stroke-linejoin:miter;stroke-width:0.8;"/>
   </g>
   <g id="patch_4">
    <path d="M 177.809007 170.28 
L 177.809007 7.2 
" style="fill:none;stroke:#000000;stroke-linecap:square;stroke-linejoin:miter;stroke-width:0.8;"/>
   </g>
   <g id="patch_5">
    <path d="M 30.103125 170.28 
L 177.809007 170.28 
" style="fill:none;stroke:#000000;stroke-linecap:square;stroke-linejoin:miter;stroke-width:0.8;"/>
   </g>
   <g id="patch_6">
    <path d="M 30.103125 7.2 
L 177.809007 7.2 
" style="fill:none;stroke:#000000;stroke-linecap:square;stroke-linejoin:miter;stroke-width:0.8;"/>
   </g>
  </g>
  <g id="axes_2">
   <g id="patch_7">
    <path d="M 207.350184 170.28 
L 355.056066 170.28 
L 355.056066 7.2 
L 207.350184 7.2 
z
" style="fill:#ffffff;"/>
   </g>
   <g id="matplotlib.axis_3">
    <g id="xtick_4">
     <g id="line2d_11">
      <g>
       <use style="stroke:#000000;stroke-width:0.8;" x="214.064088" xlink:href="#m3fed1d43ac" y="170.28"/>
      </g>
     </g>
     <g id="text_9">
      <!-- −2 -->
      <g transform="translate(206.692994 184.878438)scale(0.1 -0.1)">
       <use xlink:href="#DejaVuSans-8722"/>
       <use x="83.789062" xlink:href="#DejaVuSans-50"/>
      </g>
     </g>
    </g>
    <g id="xtick_5">
     <g id="line2d_12">
      <g>
       <use style="stroke:#000000;stroke-width:0.8;" x="281.371393" xlink:href="#m3fed1d43ac" y="170.28"/>
      </g>
     </g>
     <g id="text_10">
      <!-- 0 -->
      <g transform="translate(278.190143 184.878438)scale(0.1 -0.1)">
       <use xlink:href="#DejaVuSans-48"/>
      </g>
     </g>
    </g>
    <g id="xtick_6">
     <g id="line2d_13">
      <g>
       <use style="stroke:#000000;stroke-width:0.8;" x="348.678699" xlink:href="#m3fed1d43ac" y="170.28"/>
      </g>
     </g>
     <g id="text_11">
      <!-- 2 -->
      <g transform="translate(345.497449 184.878438)scale(0.1 -0.1)">
       <use xlink:href="#DejaVuSans-50"/>
      </g>
     </g>
    </g>
   </g>
   <g id="matplotlib.axis_4">
    <g id="ytick_6">
     <g id="line2d_14">
      <g>
       <use style="stroke:#000000;stroke-width:0.8;" x="207.350184" xlink:href="#m4405bc6a27" y="162.867273"/>
      </g>
     </g>
     <g id="text_12">
      <!-- −1.0 -->
      <g transform="translate(176.067371 166.666491)scale(0.1 -0.1)">
       <use xlink:href="#DejaVuSans-8722"/>
       <use x="83.789062" xlink:href="#DejaVuSans-49"/>
       <use x="147.412109" xlink:href="#DejaVuSans-46"/>
       <use x="179.199219" xlink:href="#DejaVuSans-48"/>
      </g>
     </g>
    </g>
    <g id="ytick_7">
     <g id="line2d_15">
      <g>
       <use style="stroke:#000000;stroke-width:0.8;" x="207.350184" xlink:href="#m4405bc6a27" y="125.803636"/>
      </g>
     </g>
     <g id="text_13">
      <!-- −0.5 -->
      <g transform="translate(176.067371 129.602855)scale(0.1 -0.1)">
       <use xlink:href="#DejaVuSans-8722"/>
       <use x="83.789062" xlink:href="#DejaVuSans-48"/>
       <use x="147.412109" xlink:href="#DejaVuSans-46"/>
       <use x="179.199219" xlink:href="#DejaVuSans-53"/>
      </g>
     </g>
    </g>
    <g id="ytick_8">
     <g id="line2d_16">
      <g>
       <use style="stroke:#000000;stroke-width:0.8;" x="207.350184" xlink:href="#m4405bc6a27" y="88.74"/>
      </g>
     </g>
     <g id="text_14">
      <!-- 0.0 -->
      <g transform="translate(184.447059 92.539219)scale(0.1 -0.1)">
       <use xlink:href="#DejaVuSans-48"/>
       <use x="63.623047" xlink:href="#DejaVuSans-46"/>
       <use x="95.410156" xlink:href="#DejaVuSans-48"/>
      </g>
     </g>
    </g>
    <g id="ytick_9">
     <g id="line2d_17">
      <g>
       <use style="stroke:#000000;stroke-width:0.8;" x="207.350184" xlink:href="#m4405bc6a27" y="51.676364"/>
      </g>
     </g>
     <g id="text_15">
      <!-- 0.5 -->
      <g transform="translate(184.447059 55.475582)scale(0.1 -0.1)">
       <use xlink:href="#DejaVuSans-48"/>
       <use x="63.623047" xlink:href="#DejaVuSans-46"/>
       <use x="95.410156" xlink:href="#DejaVuSans-53"/>
      </g>
     </g>
    </g>
    <g id="ytick_10">
     <g id="line2d_18">
      <g>
       <use style="stroke:#000000;stroke-width:0.8;" x="207.350184" xlink:href="#m4405bc6a27" y="14.612727"/>
      </g>
     </g>
     <g id="text_16">
      <!-- 1.0 -->
      <g transform="translate(184.447059 18.411946)scale(0.1 -0.1)">
       <use xlink:href="#DejaVuSans-49"/>
       <use x="63.623047" xlink:href="#DejaVuSans-46"/>
       <use x="95.410156" xlink:href="#DejaVuSans-48"/>
      </g>
     </g>
    </g>
   </g>
   <g id="line2d_19">
    <path clip-path="url(#p49bcd9fbae)" d="M 214.064088 14.612727 
L 214.737161 14.759001 
L 215.410234 15.197243 
L 216.083307 15.925725 
L 216.75638 16.941572 
L 217.765989 18.995075 
L 218.775599 21.667638 
L 219.785209 24.935541 
L 221.131355 30.167964 
L 222.477501 36.324103 
L 224.160183 45.169082 
L 226.179403 57.178142 
L 228.871695 74.849934 
L 235.938962 122.393078 
L 237.958181 134.173128 
L 239.640864 142.776456 
L 240.98701 148.710223 
L 242.333156 153.698224 
L 243.342766 156.770647 
L 244.352375 159.239226 
L 245.361985 161.082048 
L 246.035058 161.954643 
L 246.708131 162.538293 
L 247.381204 162.830695 
L 248.054277 162.830695 
L 248.72735 162.538293 
L 249.400423 161.954643 
L 250.073496 161.082048 
L 250.746569 159.923952 
L 251.756179 157.661795 
L 252.765788 154.787884 
L 253.775398 151.327726 
L 255.121544 145.856045 
L 256.46769 139.48361 
L 258.150373 130.405708 
L 260.169592 118.17949 
L 262.861884 100.33606 
L 269.256078 57.178142 
L 271.275297 45.169082 
L 272.95798 36.324103 
L 274.304126 30.167964 
L 275.650272 24.935541 
L 276.996418 20.709353 
L 278.006028 18.240774 
L 279.015638 16.397952 
L 279.688711 15.525357 
L 280.361784 14.941707 
L 281.034857 14.649305 
L 281.70793 14.649305 
L 282.381003 14.941707 
L 283.054076 15.525357 
L 283.727149 16.397952 
L 284.400222 17.556048 
L 285.409832 19.818205 
L 286.419441 22.692116 
L 287.429051 26.152274 
L 288.775197 31.623955 
L 290.121343 37.99639 
L 291.804026 47.074292 
L 293.823245 59.30051 
L 296.515537 77.14394 
L 302.909731 120.301858 
L 304.92895 132.310918 
L 306.611633 141.155897 
L 307.957779 147.312036 
L 309.303925 152.544459 
L 310.650071 156.770647 
L 311.659681 159.239226 
L 312.66929 161.082048 
L 313.342363 161.954643 
L 314.015437 162.538293 
L 314.68851 162.830695 
L 315.361583 162.830695 
L 316.034656 162.538293 
L 316.707729 161.954643 
L 317.380802 161.082048 
L 318.053875 159.923952 
L 319.063484 157.661795 
L 320.073094 154.787884 
L 321.082704 151.327726 
L 322.42885 145.856045 
L 323.774996 139.48361 
L 325.457678 130.405708 
L 327.476898 118.17949 
L 330.16919 100.33606 
L 336.563384 57.178142 
L 338.582603 45.169082 
L 340.265286 36.324103 
L 341.611432 30.167964 
L 342.957578 24.935541 
L 344.303724 20.709353 
L 345.313334 18.240774 
L 346.322943 16.397952 
L 346.996016 15.525357 
L 347.669089 14.941707 
L 348.342162 14.649305 
L 348.342162 14.649305 
" style="fill:none;stroke:#1f77b4;stroke-linecap:square;stroke-width:1.5;"/>
   </g>
   <g id="line2d_20">
    <path clip-path="url(#p49bcd9fbae)" d="M 230.890914 88.74 
L 315.025046 162.867273 
" style="fill:none;stroke:#800080;stroke-dasharray:5.55,2.4;stroke-dashoffset:0;stroke-width:1.5;"/>
   </g>
   <g id="patch_8">
    <path d="M 207.350184 170.28 
L 207.350184 7.2 
" style="fill:none;stroke:#000000;stroke-linecap:square;stroke-linejoin:miter;stroke-width:0.8;"/>
   </g>
   <g id="patch_9">
    <path d="M 355.056066 170.28 
L 355.056066 7.2 
" style="fill:none;stroke:#000000;stroke-linecap:square;stroke-linejoin:miter;stroke-width:0.8;"/>
   </g>
   <g id="patch_10">
    <path d="M 207.350184 170.28 
L 355.056066 170.28 
" style="fill:none;stroke:#000000;stroke-linecap:square;stroke-linejoin:miter;stroke-width:0.8;"/>
   </g>
   <g id="patch_11">
    <path d="M 207.350184 7.2 
L 355.056066 7.2 
" style="fill:none;stroke:#000000;stroke-linecap:square;stroke-linejoin:miter;stroke-width:0.8;"/>
   </g>
  </g>
  <g id="axes_3">
   <g id="patch_12">
    <path d="M 384.597243 170.28 
L 532.303125 170.28 
L 532.303125 7.2 
L 384.597243 7.2 
z
" style="fill:#ffffff;"/>
   </g>
   <g id="matplotlib.axis_5">
    <g id="xtick_7">
     <g id="line2d_21">
      <g>
       <use style="stroke:#000000;stroke-width:0.8;" x="391.311146" xlink:href="#m3fed1d43ac" y="170.28"/>
      </g>
     </g>
     <g id="text_17">
      <!-- −2 -->
      <g transform="translate(383.940053 184.878438)scale(0.1 -0.1)">
       <use xlink:href="#DejaVuSans-8722"/>
       <use x="83.789062" xlink:href="#DejaVuSans-50"/>
      </g>
     </g>
    </g>
    <g id="xtick_8">
     <g id="line2d_22">
      <g>
       <use style="stroke:#000000;stroke-width:0.8;" x="458.618452" xlink:href="#m3fed1d43ac" y="170.28"/>
      </g>
     </g>
     <g id="text_18">
      <!-- 0 -->
      <g transform="translate(455.437202 184.878438)scale(0.1 -0.1)">
       <use xlink:href="#DejaVuSans-48"/>
      </g>
     </g>
    </g>
    <g id="xtick_9">
     <g id="line2d_23">
      <g>
       <use style="stroke:#000000;stroke-width:0.8;" x="525.925758" xlink:href="#m3fed1d43ac" y="170.28"/>
      </g>
     </g>
     <g id="text_19">
      <!-- 2 -->
      <g transform="translate(522.744508 184.878438)scale(0.1 -0.1)">
       <use xlink:href="#DejaVuSans-50"/>
      </g>
     </g>
    </g>
   </g>
   <g id="matplotlib.axis_6">
    <g id="ytick_11">
     <g id="line2d_24">
      <g>
       <use style="stroke:#000000;stroke-width:0.8;" x="384.597243" xlink:href="#m4405bc6a27" y="154.485256"/>
      </g>
     </g>
     <g id="text_20">
      <!-- 0.5 -->
      <g transform="translate(361.694118 158.284475)scale(0.1 -0.1)">
       <use xlink:href="#DejaVuSans-48"/>
       <use x="63.623047" xlink:href="#DejaVuSans-46"/>
       <use x="95.410156" xlink:href="#DejaVuSans-53"/>
      </g>
     </g>
    </g>
    <g id="ytick_12">
     <g id="line2d_25">
      <g>
       <use style="stroke:#000000;stroke-width:0.8;" x="384.597243" xlink:href="#m4405bc6a27" y="122.764164"/>
      </g>
     </g>
     <g id="text_21">
      <!-- 1.0 -->
      <g transform="translate(361.694118 126.563382)scale(0.1 -0.1)">
       <use xlink:href="#DejaVuSans-49"/>
       <use x="63.623047" xlink:href="#DejaVuSans-46"/>
       <use x="95.410156" xlink:href="#DejaVuSans-48"/>
      </g>
     </g>
    </g>
    <g id="ytick_13">
     <g id="line2d_26">
      <g>
       <use style="stroke:#000000;stroke-width:0.8;" x="384.597243" xlink:href="#m4405bc6a27" y="91.043071"/>
      </g>
     </g>
     <g id="text_22">
      <!-- 1.5 -->
      <g transform="translate(361.694118 94.84229)scale(0.1 -0.1)">
       <use xlink:href="#DejaVuSans-49"/>
       <use x="63.623047" xlink:href="#DejaVuSans-46"/>
       <use x="95.410156" xlink:href="#DejaVuSans-53"/>
      </g>
     </g>
    </g>
    <g id="ytick_14">
     <g id="line2d_27">
      <g>
       <use style="stroke:#000000;stroke-width:0.8;" x="384.597243" xlink:href="#m4405bc6a27" y="59.321979"/>
      </g>
     </g>
     <g id="text_23">
      <!-- 2.0 -->
      <g transform="translate(361.694118 63.121198)scale(0.1 -0.1)">
       <use xlink:href="#DejaVuSans-50"/>
       <use x="63.623047" xlink:href="#DejaVuSans-46"/>
       <use x="95.410156" xlink:href="#DejaVuSans-48"/>
      </g>
     </g>
    </g>
    <g id="ytick_15">
     <g id="line2d_28">
      <g>
       <use style="stroke:#000000;stroke-width:0.8;" x="384.597243" xlink:href="#m4405bc6a27" y="27.600887"/>
      </g>
     </g>
     <g id="text_24">
      <!-- 2.5 -->
      <g transform="translate(361.694118 31.400105)scale(0.1 -0.1)">
       <use xlink:href="#DejaVuSans-50"/>
       <use x="63.623047" xlink:href="#DejaVuSans-46"/>
       <use x="95.410156" xlink:href="#DejaVuSans-53"/>
      </g>
     </g>
    </g>
   </g>
   <g id="line2d_29">
    <path clip-path="url(#pbad26bd459)" d="M 391.311146 162.867273 
L 398.041877 160.412681 
L 404.436071 157.842113 
L 410.493729 155.170932 
L 416.214849 152.417561 
L 421.93597 149.419919 
L 427.320555 146.356085 
L 432.705139 143.037073 
L 437.753187 139.674871 
L 442.801235 136.050806 
L 447.849283 132.144485 
L 452.560795 128.224557 
L 457.272306 124.020403 
L 461.983817 119.511413 
L 466.695329 114.675485 
L 471.070304 109.871542 
L 475.445279 104.744971 
L 479.820253 99.274104 
L 484.195228 93.435819 
L 488.570203 87.205441 
L 492.945178 80.556637 
L 496.983616 74.023623 
L 501.022055 67.086631 
L 505.060493 59.720679 
L 509.098931 51.899242 
L 513.13737 43.594155 
L 517.175808 34.775509 
L 521.214246 25.411549 
L 525.252685 15.468554 
L 525.589221 14.612727 
L 525.589221 14.612727 
" style="fill:none;stroke:#1f77b4;stroke-linecap:square;stroke-width:1.5;"/>
   </g>
   <g id="line2d_30">
    <path clip-path="url(#pbad26bd459)" d="M 408.137973 156.238382 
L 492.272105 81.607869 
" style="fill:none;stroke:#800080;stroke-dasharray:5.55,2.4;stroke-dashoffset:0;stroke-width:1.5;"/>
   </g>
   <g id="patch_13">
    <path d="M 384.597243 170.28 
L 384.597243 7.2 
" style="fill:none;stroke:#000000;stroke-linecap:square;stroke-linejoin:miter;stroke-width:0.8;"/>
   </g>
   <g id="patch_14">
    <path d="M 532.303125 170.28 
L 532.303125 7.2 
" style="fill:none;stroke:#000000;stroke-linecap:square;stroke-linejoin:miter;stroke-width:0.8;"/>
   </g>
   <g id="patch_15">
    <path d="M 384.597243 170.28 
L 532.303125 170.28 
" style="fill:none;stroke:#000000;stroke-linecap:square;stroke-linejoin:miter;stroke-width:0.8;"/>
   </g>
   <g id="patch_16">
    <path d="M 384.597243 7.2 
L 532.303125 7.2 
" style="fill:none;stroke:#000000;stroke-linecap:square;stroke-linejoin:miter;stroke-width:0.8;"/>
   </g>
  </g>
 </g>
 <defs>
  <clipPath id="p676e027378">
   <rect height="163.08" width="147.705882" x="30.103125" y="7.2"/>
  </clipPath>
  <clipPath id="p49bcd9fbae">
   <rect height="163.08" width="147.705882" x="207.350184" y="7.2"/>
  </clipPath>
  <clipPath id="pbad26bd459">
   <rect height="163.08" width="147.705882" x="384.597243" y="7.2"/>
  </clipPath>
 </defs>
</svg>
