<?xml version="1.0" encoding="utf-8" standalone="no"?>
<!DOCTYPE svg PUBLIC "-//W3C//DTD SVG 1.1//EN"
  "http://www.w3.org/Graphics/SVG/1.1/DTD/svg11.dtd">
<!-- Created with matplotlib (https://matplotlib.org/) -->
<svg height="180.65625pt" version="1.1" viewBox="0 0 245.120313 180.65625" width="245.120313pt" xmlns="http://www.w3.org/2000/svg" xmlns:xlink="http://www.w3.org/1999/xlink">
 <defs>
  <style type="text/css">
*{stroke-linecap:butt;stroke-linejoin:round;}
  </style>
 </defs>
 <g id="figure_1">
  <g id="patch_1">
   <path d="M 0 180.65625 
L 245.120313 180.65625 
L 245.120313 0 
L 0 0 
z
" style="fill:none;"/>
  </g>
  <g id="axes_1">
   <g id="patch_2">
    <path d="M 42.620312 143.1 
L 237.920313 143.1 
L 237.920313 7.2 
L 42.620312 7.2 
z
" style="fill:#ffffff;"/>
   </g>
   <g id="matplotlib.axis_1">
    <g id="xtick_1">
     <g id="line2d_1">
      <defs>
       <path d="M 0 0 
L 0 3.5 
" id="m0b38ad67fd" style="stroke:#000000;stroke-width:0.8;"/>
      </defs>
      <g>
       <use style="stroke:#000000;stroke-width:0.8;" x="88.39375" xlink:href="#m0b38ad67fd" y="143.1"/>
      </g>
     </g>
     <g id="text_1">
      <!-- −4 -->
      <defs>
       <path d="M 10.59375 35.5 
L 73.1875 35.5 
L 73.1875 27.203125 
L 10.59375 27.203125 
z
" id="DejaVuSans-8722"/>
       <path d="M 37.796875 64.3125 
L 12.890625 25.390625 
L 37.796875 25.390625 
z
M 35.203125 72.90625 
L 47.609375 72.90625 
L 47.609375 25.390625 
L 58.015625 25.390625 
L 58.015625 17.1875 
L 47.609375 17.1875 
L 47.609375 0 
L 37.796875 0 
L 37.796875 17.1875 
L 4.890625 17.1875 
L 4.890625 26.703125 
z
" id="DejaVuSans-52"/>
      </defs>
      <g transform="translate(81.022656 157.698438)scale(0.1 -0.1)">
       <use xlink:href="#DejaVuSans-8722"/>
       <use x="83.789062" xlink:href="#DejaVuSans-52"/>
      </g>
     </g>
    </g>
    <g id="xtick_2">
     <g id="line2d_2">
      <g>
       <use style="stroke:#000000;stroke-width:0.8;" x="149.425" xlink:href="#m0b38ad67fd" y="143.1"/>
      </g>
     </g>
     <g id="text_2">
      <!-- −2 -->
      <defs>
       <path d="M 19.1875 8.296875 
L 53.609375 8.296875 
L 53.609375 0 
L 7.328125 0 
L 7.328125 8.296875 
Q 12.9375 14.109375 22.625 23.890625 
Q 32.328125 33.6875 34.8125 36.53125 
Q 39.546875 41.84375 41.421875 45.53125 
Q 43.3125 49.21875 43.3125 52.78125 
Q 43.3125 58.59375 39.234375 62.25 
Q 35.15625 65.921875 28.609375 65.921875 
Q 23.96875 65.921875 18.8125 64.3125 
Q 13.671875 62.703125 7.8125 59.421875 
L 7.8125 69.390625 
Q 13.765625 71.78125 18.9375 73 
Q 24.125 74.21875 28.421875 74.21875 
Q 39.75 74.21875 46.484375 68.546875 
Q 53.21875 62.890625 53.21875 53.421875 
Q 53.21875 48.921875 51.53125 44.890625 
Q 49.859375 40.875 45.40625 35.40625 
Q 44.1875 33.984375 37.640625 27.21875 
Q 31.109375 20.453125 19.1875 8.296875 
z
" id="DejaVuSans-50"/>
      </defs>
      <g transform="translate(142.053906 157.698438)scale(0.1 -0.1)">
       <use xlink:href="#DejaVuSans-8722"/>
       <use x="83.789062" xlink:href="#DejaVuSans-50"/>
      </g>
     </g>
    </g>
    <g id="xtick_3">
     <g id="line2d_3">
      <g>
       <use style="stroke:#000000;stroke-width:0.8;" x="210.45625" xlink:href="#m0b38ad67fd" y="143.1"/>
      </g>
     </g>
     <g id="text_3">
      <!-- 0 -->
      <defs>
       <path d="M 31.78125 66.40625 
Q 24.171875 66.40625 20.328125 58.90625 
Q 16.5 51.421875 16.5 36.375 
Q 16.5 21.390625 20.328125 13.890625 
Q 24.171875 6.390625 31.78125 6.390625 
Q 39.453125 6.390625 43.28125 13.890625 
Q 47.125 21.390625 47.125 36.375 
Q 47.125 51.421875 43.28125 58.90625 
Q 39.453125 66.40625 31.78125 66.40625 
z
M 31.78125 74.21875 
Q 44.046875 74.21875 50.515625 64.515625 
Q 56.984375 54.828125 56.984375 36.375 
Q 56.984375 17.96875 50.515625 8.265625 
Q 44.046875 -1.421875 31.78125 -1.421875 
Q 19.53125 -1.421875 13.0625 8.265625 
Q 6.59375 17.96875 6.59375 36.375 
Q 6.59375 54.828125 13.0625 64.515625 
Q 19.53125 74.21875 31.78125 74.21875 
z
" id="DejaVuSans-48"/>
      </defs>
      <g transform="translate(207.275 157.698438)scale(0.1 -0.1)">
       <use xlink:href="#DejaVuSans-48"/>
      </g>
     </g>
    </g>
    <g id="text_4">
     <!-- x1 -->
     <defs>
      <path d="M 54.890625 54.6875 
L 35.109375 28.078125 
L 55.90625 0 
L 45.3125 0 
L 29.390625 21.484375 
L 13.484375 0 
L 2.875 0 
L 24.125 28.609375 
L 4.6875 54.6875 
L 15.28125 54.6875 
L 29.78125 35.203125 
L 44.28125 54.6875 
z
" id="DejaVuSans-120"/>
      <path d="M 12.40625 8.296875 
L 28.515625 8.296875 
L 28.515625 63.921875 
L 10.984375 60.40625 
L 10.984375 69.390625 
L 28.421875 72.90625 
L 38.28125 72.90625 
L 38.28125 8.296875 
L 54.390625 8.296875 
L 54.390625 0 
L 12.40625 0 
z
" id="DejaVuSans-49"/>
     </defs>
     <g transform="translate(134.129687 171.376563)scale(0.1 -0.1)">
      <use xlink:href="#DejaVuSans-120"/>
      <use x="59.179688" xlink:href="#DejaVuSans-49"/>
     </g>
    </g>
   </g>
   <g id="matplotlib.axis_2">
    <g id="ytick_1">
     <g id="line2d_4">
      <defs>
       <path d="M 0 0 
L -3.5 0 
" id="m081588a5a2" style="stroke:#000000;stroke-width:0.8;"/>
      </defs>
      <g>
       <use style="stroke:#000000;stroke-width:0.8;" x="42.620312" xlink:href="#m081588a5a2" y="143.1"/>
      </g>
     </g>
     <g id="text_5">
      <!-- −3 -->
      <defs>
       <path d="M 40.578125 39.3125 
Q 47.65625 37.796875 51.625 33 
Q 55.609375 28.21875 55.609375 21.1875 
Q 55.609375 10.40625 48.1875 4.484375 
Q 40.765625 -1.421875 27.09375 -1.421875 
Q 22.515625 -1.421875 17.65625 -0.515625 
Q 12.796875 0.390625 7.625 2.203125 
L 7.625 11.71875 
Q 11.71875 9.328125 16.59375 8.109375 
Q 21.484375 6.890625 26.8125 6.890625 
Q 36.078125 6.890625 40.9375 10.546875 
Q 45.796875 14.203125 45.796875 21.1875 
Q 45.796875 27.640625 41.28125 31.265625 
Q 36.765625 34.90625 28.71875 34.90625 
L 20.21875 34.90625 
L 20.21875 43.015625 
L 29.109375 43.015625 
Q 36.375 43.015625 40.234375 45.921875 
Q 44.09375 48.828125 44.09375 54.296875 
Q 44.09375 59.90625 40.109375 62.90625 
Q 36.140625 65.921875 28.71875 65.921875 
Q 24.65625 65.921875 20.015625 65.03125 
Q 15.375 64.15625 9.8125 62.3125 
L 9.8125 71.09375 
Q 15.4375 72.65625 20.34375 73.4375 
Q 25.25 74.21875 29.59375 74.21875 
Q 40.828125 74.21875 47.359375 69.109375 
Q 53.90625 64.015625 53.90625 55.328125 
Q 53.90625 49.265625 50.4375 45.09375 
Q 46.96875 40.921875 40.578125 39.3125 
z
" id="DejaVuSans-51"/>
      </defs>
      <g transform="translate(20.878125 146.899219)scale(0.1 -0.1)">
       <use xlink:href="#DejaVuSans-8722"/>
       <use x="83.789062" xlink:href="#DejaVuSans-51"/>
      </g>
     </g>
    </g>
    <g id="ytick_2">
     <g id="line2d_5">
      <g>
       <use style="stroke:#000000;stroke-width:0.8;" x="42.620312" xlink:href="#m081588a5a2" y="108.253846"/>
      </g>
     </g>
     <g id="text_6">
      <!-- −2 -->
      <g transform="translate(20.878125 112.053065)scale(0.1 -0.1)">
       <use xlink:href="#DejaVuSans-8722"/>
       <use x="83.789062" xlink:href="#DejaVuSans-50"/>
      </g>
     </g>
    </g>
    <g id="ytick_3">
     <g id="line2d_6">
      <g>
       <use style="stroke:#000000;stroke-width:0.8;" x="42.620312" xlink:href="#m081588a5a2" y="73.407692"/>
      </g>
     </g>
     <g id="text_7">
      <!-- −1 -->
      <g transform="translate(20.878125 77.206911)scale(0.1 -0.1)">
       <use xlink:href="#DejaVuSans-8722"/>
       <use x="83.789062" xlink:href="#DejaVuSans-49"/>
      </g>
     </g>
    </g>
    <g id="ytick_4">
     <g id="line2d_7">
      <g>
       <use style="stroke:#000000;stroke-width:0.8;" x="42.620312" xlink:href="#m081588a5a2" y="38.561538"/>
      </g>
     </g>
     <g id="text_8">
      <!-- 0 -->
      <g transform="translate(29.257812 42.360757)scale(0.1 -0.1)">
       <use xlink:href="#DejaVuSans-48"/>
      </g>
     </g>
    </g>
    <g id="text_9">
     <!-- x2 -->
     <g transform="translate(14.798437 81.290625)rotate(-90)scale(0.1 -0.1)">
      <use xlink:href="#DejaVuSans-120"/>
      <use x="59.179688" xlink:href="#DejaVuSans-50"/>
     </g>
    </g>
   </g>
   <g id="LineCollection_1"/>
   <g id="LineCollection_2">
    <path clip-path="url(#p4e8e5b5d2d)" d="M 237.920313 104.627963 
L 237.381801 104.769231 
L 234.86875 105.394675 
L 231.817188 106.064793 
L 228.765625 106.645562 
L 225.714063 107.136982 
L 222.6625 107.539053 
L 219.610938 107.851775 
L 216.559375 108.075148 
L 213.507813 108.209172 
L 210.45625 108.253846 
L 210.45625 108.253846 
L 210.45625 108.253846 
L 207.404688 108.209172 
L 204.353125 108.075148 
L 201.301563 107.851775 
L 198.25 107.539053 
L 195.198438 107.136982 
L 192.146875 106.645562 
L 189.095313 106.064793 
L 186.04375 105.394675 
L 183.530699 104.769231 
L 182.992188 104.627963 
L 179.940625 103.733264 
L 176.889063 102.744387 
L 173.8375 101.661331 
L 172.861 101.284615 
L 170.785938 100.438352 
L 167.734375 99.094286 
L 164.998491 97.8 
L 164.682813 97.641608 
L 161.63125 96.004895 
L 158.672159 94.315385 
L 158.579688 94.259181 
L 155.528125 92.29206 
L 153.383784 90.830769 
L 152.476563 90.169894 
L 149.425 87.82679 
L 148.829573 87.346154 
L 146.373438 85.216667 
L 144.88314 83.861538 
L 143.321875 82.328308 
L 141.423125 80.376923 
L 140.270313 79.08913 
L 138.387434 76.892308 
L 137.21875 75.398901 
L 135.724107 73.407692 
L 134.167188 71.115182 
L 133.389338 69.923077 
L 131.354963 66.438462 
L 131.115625 65.973846 
L 129.618632 62.953846 
L 128.121639 59.469231 
L 128.064063 59.310839 
L 126.89892 55.984615 
L 125.900227 52.5 
L 125.123466 49.015385 
L 125.0125 48.318462 
L 124.584211 45.530769 
L 124.262993 42.046154 
L 124.155921 38.561538 
L 124.262993 35.076923 
L 124.584211 31.592308 
L 125.0125 28.804615 
L 125.123466 28.107692 
L 125.900227 24.623077 
L 126.89892 21.138462 
L 128.064063 17.812238 
L 128.121639 17.653846 
L 129.618632 14.169231 
L 131.115625 11.149231 
L 131.354963 10.684615 
L 133.389338 7.2 
" style="fill:none;stroke:#1f77b4;stroke-width:1.5;"/>
   </g>
   <g id="LineCollection_3">
    <path clip-path="url(#p4e8e5b5d2d)" d="M 237.920313 134.578531 
L 234.86875 135.117063 
L 231.817188 135.592238 
L 228.765625 136.004056 
L 227.655966 136.130769 
L 225.714063 136.344737 
L 222.6625 136.619838 
L 219.610938 136.833806 
L 216.559375 136.98664 
L 213.507813 137.07834 
L 210.45625 137.108907 
L 207.404688 137.07834 
L 204.353125 136.98664 
L 201.301563 136.833806 
L 198.25 136.619838 
L 195.198438 136.344737 
L 193.256534 136.130769 
L 192.146875 136.004056 
L 189.095313 135.592238 
L 186.04375 135.117063 
L 182.992188 134.578531 
L 179.940625 133.976643 
L 176.889063 133.311399 
L 174.102853 132.646154 
L 173.8375 132.580406 
L 170.785938 131.758563 
L 167.734375 130.870972 
L 164.682813 129.917634 
L 162.41875 129.161538 
L 161.63125 128.888235 
L 158.579688 127.76086 
L 155.528125 126.565158 
L 153.383784 125.676923 
L 152.476563 125.285793 
L 149.425 123.899058 
L 146.373438 122.441209 
L 145.876672 122.192308 
L 143.321875 120.857774 
L 140.270313 119.189607 
L 139.426263 118.707692 
L 137.21875 117.391282 
L 134.167188 115.494103 
L 133.748346 115.223077 
L 131.115625 113.44025 
L 128.697406 111.738462 
L 128.064063 111.271013 
L 125.0125 108.933771 
L 124.155921 108.253846 
L 121.960938 106.422189 
L 120.047246 104.769231 
L 118.909375 103.733264 
L 116.308043 101.284615 
L 115.857813 100.836593 
L 112.903125 97.8 
L 112.80625 97.694406 
L 109.801635 94.315385 
L 109.754688 94.259181 
L 106.976399 90.830769 
L 106.703125 90.470292 
L 104.403397 87.346154 
L 103.651563 86.249145 
L 102.061312 83.861538 
L 100.6 81.492 
L 99.931164 80.376923 
L 98.008262 76.892308 
L 97.548438 75.97967 
L 96.287125 73.407692 
L 94.741 69.923077 
L 94.496875 69.308145 
L 93.387216 66.438462 
L 92.198295 62.953846 
L 91.445313 60.407396 
L 91.174921 59.469231 
L 90.325119 55.984615 
L 89.629826 52.5 
L 89.089043 49.015385 
L 88.702769 45.530769 
L 88.471005 42.046154 
L 88.39375 38.561538 
L 88.471005 35.076923 
L 88.702769 31.592308 
L 89.089043 28.107692 
L 89.629826 24.623077 
L 90.325119 21.138462 
L 91.174921 17.653846 
L 91.445313 16.71568 
L 92.198295 14.169231 
L 93.387216 10.684615 
L 94.496875 7.814932 
L 94.741 7.2 
" style="fill:none;stroke:#1f77b4;stroke-width:1.5;"/>
   </g>
   <g id="LineCollection_4">
    <path clip-path="url(#p4e8e5b5d2d)" d="M 135.724107 143.1 
L 134.167188 142.361734 
L 131.115625 140.855671 
L 128.697406 139.615385 
L 128.064063 139.27915 
L 125.0125 137.597976 
L 122.442763 136.130769 
L 121.960938 135.845664 
L 118.909375 133.976643 
L 116.808299 132.646154 
L 115.857813 132.021553 
L 112.80625 129.950508 
L 111.679519 129.161538 
L 109.754688 127.76086 
L 106.976399 125.676923 
L 106.703125 125.463579 
L 103.651563 123.010126 
L 102.663028 122.192308 
L 100.6 120.41293 
L 98.677098 118.707692 
L 97.548438 117.662308 
L 94.985125 115.223077 
L 94.496875 114.736852 
L 91.564205 111.738462 
L 91.445313 111.610976 
L 88.39375 108.253846 
L 88.39375 108.253846 
L 85.455208 104.769231 
L 85.342188 104.627963 
L 82.731815 101.284615 
L 82.290625 100.687253 
L 80.208382 97.8 
L 79.239063 96.374476 
L 77.871121 94.315385 
L 76.1875 91.617618 
L 75.707479 90.830769 
L 73.71882 87.346154 
L 73.135938 86.249145 
L 71.895192 83.861538 
L 70.21851 80.376923 
L 70.084375 80.073913 
L 68.70625 76.892308 
L 67.328125 73.407692 
L 67.032813 72.582389 
L 66.101283 69.923077 
L 65.009145 66.438462 
L 64.045493 62.953846 
L 63.98125 62.685799 
L 63.226224 59.469231 
L 62.534117 55.984615 
L 61.967848 52.5 
L 61.527416 49.015385 
L 61.212822 45.530769 
L 61.024066 42.046154 
L 60.961147 38.561538 
L 61.024066 35.076923 
L 61.212822 31.592308 
L 61.527416 28.107692 
L 61.967848 24.623077 
L 62.534117 21.138462 
L 63.226224 17.653846 
L 63.98125 14.437278 
L 64.045493 14.169231 
L 65.009145 10.684615 
L 66.101283 7.2 
" style="fill:none;stroke:#1f77b4;stroke-width:1.5;"/>
   </g>
   <g id="LineCollection_5">
    <path clip-path="url(#p4e8e5b5d2d)" d="M 96.287125 143.1 
L 94.496875 141.800652 
L 91.564205 139.615385 
L 91.445313 139.523684 
L 88.39375 137.108907 
L 87.188194 136.130769 
L 85.342188 134.578531 
L 83.099473 132.646154 
L 82.290625 131.922932 
L 79.274963 129.161538 
L 79.239063 129.127376 
L 76.1875 126.155204 
L 75.707479 125.676923 
L 73.135938 123.010126 
L 72.364663 122.192308 
L 70.084375 119.671522 
L 69.23125 118.707692 
L 67.032813 116.11359 
L 66.294013 115.223077 
L 63.98125 112.305725 
L 63.540818 111.738462 
L 60.961147 108.253846 
L 60.929688 108.209172 
L 58.55625 104.769231 
L 57.878125 103.733264 
L 56.307024 101.284615 
L 54.826563 98.845385 
L 54.204399 97.8 
L 52.249029 94.315385 
L 51.775 93.416129 
L 50.438125 90.830769 
L 48.7525 87.346154 
L 48.723438 87.281624 
L 47.211916 83.861538 
L 45.785952 80.376923 
L 45.671875 80.073913 
L 44.496044 76.892308 
L 43.320212 73.407692 
L 42.620313 71.115182 
" style="fill:none;stroke:#1f77b4;stroke-width:1.5;"/>
   </g>
   <g id="LineCollection_6">
    <path clip-path="url(#p4e8e5b5d2d)" d="M 67.328125 143.1 
L 67.032813 142.834224 
L 63.98125 140.028814 
L 63.540818 139.615385 
L 60.929688 137.07834 
L 59.974148 136.130769 
L 57.878125 133.976643 
L 56.609158 132.646154 
L 54.826563 130.706604 
L 53.434102 129.161538 
L 51.775 127.248416 
L 50.438125 125.676923 
L 48.723438 123.579042 
L 47.611186 122.192308 
L 45.671875 119.671522 
L 44.943979 118.707692 
L 42.620313 115.494103 
" style="fill:none;stroke:#1f77b4;stroke-width:1.5;"/>
   </g>
   <g id="LineCollection_7">
    <path clip-path="url(#p4e8e5b5d2d)" d="M 43.320212 143.1 
L 42.620313 142.361734 
" style="fill:none;stroke:#1f77b4;stroke-width:1.5;"/>
   </g>
   <g id="LineCollection_8"/>
   <g id="line2d_8">
    <path clip-path="url(#p4e8e5b5d2d)" d="M 57.878125 108.253846 
L 88.39375 80.376923 
L 112.80625 63.650769 
L 132.33625 53.615077 
L 147.96025 47.593662 
L 160.45945 43.980812 
L 170.45881 41.813103 
L 178.458298 40.512477 
L 184.857888 39.732102 
L 189.977561 39.263876 
L 194.073299 38.982941 
L 197.349889 38.81438 
L 199.971161 38.713243 
L 202.068179 38.652561 
L 203.745793 38.616152 
L 205.087884 38.594307 
L 206.161558 38.581199 
L 207.020496 38.573335 
L 207.707647 38.568616 
L 208.257367 38.565785 
L 208.697144 38.564087 
" style="fill:none;stroke:#ff7f0e;stroke-linecap:square;stroke-width:1.5;"/>
    <defs>
     <path d="M 0 3 
C 0.795609 3 1.55874 2.683901 2.12132 2.12132 
C 2.683901 1.55874 3 0.795609 3 0 
C 3 -0.795609 2.683901 -1.55874 2.12132 -2.12132 
C 1.55874 -2.683901 0.795609 -3 0 -3 
C -0.795609 -3 -1.55874 -2.683901 -2.12132 -2.12132 
C -2.683901 -1.55874 -3 -0.795609 -3 0 
C -3 0.795609 -2.683901 1.55874 -2.12132 2.12132 
C -1.55874 2.683901 -0.795609 3 0 3 
z
" id="m8abedeab79" style="stroke:#ff7f0e;"/>
    </defs>
    <g clip-path="url(#p4e8e5b5d2d)">
     <use style="fill:#ff7f0e;stroke:#ff7f0e;" x="57.878125" xlink:href="#m8abedeab79" y="108.253846"/>
     <use style="fill:#ff7f0e;stroke:#ff7f0e;" x="88.39375" xlink:href="#m8abedeab79" y="80.376923"/>
     <use style="fill:#ff7f0e;stroke:#ff7f0e;" x="112.80625" xlink:href="#m8abedeab79" y="63.650769"/>
     <use style="fill:#ff7f0e;stroke:#ff7f0e;" x="132.33625" xlink:href="#m8abedeab79" y="53.615077"/>
     <use style="fill:#ff7f0e;stroke:#ff7f0e;" x="147.96025" xlink:href="#m8abedeab79" y="47.593662"/>
     <use style="fill:#ff7f0e;stroke:#ff7f0e;" x="160.45945" xlink:href="#m8abedeab79" y="43.980812"/>
     <use style="fill:#ff7f0e;stroke:#ff7f0e;" x="170.45881" xlink:href="#m8abedeab79" y="41.813103"/>
     <use style="fill:#ff7f0e;stroke:#ff7f0e;" x="178.458298" xlink:href="#m8abedeab79" y="40.512477"/>
     <use style="fill:#ff7f0e;stroke:#ff7f0e;" x="184.857888" xlink:href="#m8abedeab79" y="39.732102"/>
     <use style="fill:#ff7f0e;stroke:#ff7f0e;" x="189.977561" xlink:href="#m8abedeab79" y="39.263876"/>
     <use style="fill:#ff7f0e;stroke:#ff7f0e;" x="194.073299" xlink:href="#m8abedeab79" y="38.982941"/>
     <use style="fill:#ff7f0e;stroke:#ff7f0e;" x="197.349889" xlink:href="#m8abedeab79" y="38.81438"/>
     <use style="fill:#ff7f0e;stroke:#ff7f0e;" x="199.971161" xlink:href="#m8abedeab79" y="38.713243"/>
     <use style="fill:#ff7f0e;stroke:#ff7f0e;" x="202.068179" xlink:href="#m8abedeab79" y="38.652561"/>
     <use style="fill:#ff7f0e;stroke:#ff7f0e;" x="203.745793" xlink:href="#m8abedeab79" y="38.616152"/>
     <use style="fill:#ff7f0e;stroke:#ff7f0e;" x="205.087884" xlink:href="#m8abedeab79" y="38.594307"/>
     <use style="fill:#ff7f0e;stroke:#ff7f0e;" x="206.161558" xlink:href="#m8abedeab79" y="38.581199"/>
     <use style="fill:#ff7f0e;stroke:#ff7f0e;" x="207.020496" xlink:href="#m8abedeab79" y="38.573335"/>
     <use style="fill:#ff7f0e;stroke:#ff7f0e;" x="207.707647" xlink:href="#m8abedeab79" y="38.568616"/>
     <use style="fill:#ff7f0e;stroke:#ff7f0e;" x="208.257367" xlink:href="#m8abedeab79" y="38.565785"/>
     <use style="fill:#ff7f0e;stroke:#ff7f0e;" x="208.697144" xlink:href="#m8abedeab79" y="38.564087"/>
    </g>
   </g>
   <g id="patch_3">
    <path d="M 42.620312 143.1 
L 42.620312 7.2 
" style="fill:none;stroke:#000000;stroke-linecap:square;stroke-linejoin:miter;stroke-width:0.8;"/>
   </g>
   <g id="patch_4">
    <path d="M 237.920313 143.1 
L 237.920313 7.2 
" style="fill:none;stroke:#000000;stroke-linecap:square;stroke-linejoin:miter;stroke-width:0.8;"/>
   </g>
   <g id="patch_5">
    <path d="M 42.620313 143.1 
L 237.920313 143.1 
" style="fill:none;stroke:#000000;stroke-linecap:square;stroke-linejoin:miter;stroke-width:0.8;"/>
   </g>
   <g id="patch_6">
    <path d="M 42.620313 7.2 
L 237.920313 7.2 
" style="fill:none;stroke:#000000;stroke-linecap:square;stroke-linejoin:miter;stroke-width:0.8;"/>
   </g>
  </g>
 </g>
 <defs>
  <clipPath id="p4e8e5b5d2d">
   <rect height="135.9" width="195.3" x="42.620312" y="7.2"/>
  </clipPath>
 </defs>
</svg>
