<?xml version="1.0" encoding="utf-8" standalone="no"?>
<!DOCTYPE svg PUBLIC "-//W3C//DTD SVG 1.1//EN"
  "http://www.w3.org/Graphics/SVG/1.1/DTD/svg11.dtd">
<!-- Created with matplotlib (https://matplotlib.org/) -->
<svg height="231.84pt" version="1.1" viewBox="0 0 349.2 231.84" width="349.2pt" xmlns="http://www.w3.org/2000/svg" xmlns:xlink="http://www.w3.org/1999/xlink">
 <defs>
  <style type="text/css">
*{stroke-linecap:butt;stroke-linejoin:round;}
  </style>
 </defs>
 <g id="figure_1">
  <g id="patch_1">
   <path d="M 0 231.84 
L 349.2 231.84 
L 349.2 0 
L 0 0 
z
" style="fill:none;"/>
  </g>
  <g id="patch_2">
   <path d="M 7.2 224.64 
L 342 224.64 
L 342 7.2 
L 7.2 7.2 
z
" style="fill:#ffffff;"/>
  </g>
  <g id="pane3d_1">
   <g id="patch_3">
    <path d="M 51.582914 176.593423 
L 147.404425 123.282062 
L 145.809099 21.412801 
L 44.64491 69.311962 
" style="fill:#f2f2f2;opacity:0.5;stroke:#f2f2f2;stroke-linejoin:miter;"/>
   </g>
  </g>
  <g id="pane3d_2">
   <g id="patch_4">
    <path d="M 147.404425 123.282062 
L 302.626265 153.086553 
L 309.120561 48.145466 
L 145.809099 21.412801 
" style="fill:#e6e6e6;opacity:0.5;stroke:#e6e6e6;stroke-linejoin:miter;"/>
   </g>
  </g>
  <g id="pane3d_3">
   <g id="patch_5">
    <path d="M 51.582914 176.593423 
L 214.897263 211.305609 
L 302.626265 153.086553 
L 147.404425 123.282062 
" style="fill:#ececec;opacity:0.5;stroke:#ececec;stroke-linejoin:miter;"/>
   </g>
  </g>
  <g id="axis3d_1">
   <g id="line2d_1">
    <path d="M 51.582914 176.593423 
L 214.897263 211.305609 
" style="fill:none;stroke:#000000;stroke-linecap:square;stroke-width:0.8;"/>
   </g>
   <g id="text_1">
    <!-- x -->
    <defs>
     <path d="M 54.890625 54.6875 
L 35.109375 28.078125 
L 55.90625 0 
L 45.3125 0 
L 29.390625 21.484375 
L 13.484375 0 
L 2.875 0 
L 24.125 28.609375 
L 4.6875 54.6875 
L 15.28125 54.6875 
L 29.78125 35.203125 
L 44.28125 54.6875 
z
" id="DejaVuSans-120"/>
    </defs>
    <g transform="translate(111.516779 224.825263)scale(0.1 -0.1)">
     <use xlink:href="#DejaVuSans-120"/>
    </g>
   </g>
   <g id="Line3DCollection_1">
    <path d="M 61.539611 178.709702 
L 156.897598 125.104867 
L 155.776615 23.044396 
" style="fill:none;stroke:#b0b0b0;stroke-width:0.8;"/>
    <path d="M 131.3742 193.552925 
L 223.371995 137.868764 
L 225.646939 34.48156 
" style="fill:none;stroke:#b0b0b0;stroke-width:0.8;"/>
    <path d="M 204.050753 209.000202 
L 292.34945 151.113279 
L 298.286139 46.371965 
" style="fill:none;stroke:#b0b0b0;stroke-width:0.8;"/>
   </g>
   <g id="xtick_1">
    <g id="line2d_2">
     <path d="M 62.361169 178.247869 
L 59.893431 179.635091 
" style="fill:none;stroke:#000000;stroke-linecap:square;stroke-width:0.8;"/>
    </g>
    <g id="text_2">
     <!-- −1 -->
     <defs>
      <path d="M 10.59375 35.5 
L 73.1875 35.5 
L 73.1875 27.203125 
L 10.59375 27.203125 
z
" id="DejaVuSans-8722"/>
      <path d="M 12.40625 8.296875 
L 28.515625 8.296875 
L 28.515625 63.921875 
L 10.984375 60.40625 
L 10.984375 69.390625 
L 28.421875 72.90625 
L 38.28125 72.90625 
L 38.28125 8.296875 
L 54.390625 8.296875 
L 54.390625 0 
L 12.40625 0 
z
" id="DejaVuSans-49"/>
     </defs>
     <g transform="translate(46.421865 199.10444)scale(0.1 -0.1)">
      <use xlink:href="#DejaVuSans-8722"/>
      <use x="83.789062" xlink:href="#DejaVuSans-49"/>
     </g>
    </g>
   </g>
   <g id="xtick_2">
    <g id="line2d_3">
     <path d="M 132.167936 193.072494 
L 129.783706 194.515614 
" style="fill:none;stroke:#000000;stroke-linecap:square;stroke-width:0.8;"/>
    </g>
    <g id="text_3">
     <!-- 0 -->
     <defs>
      <path d="M 31.78125 66.40625 
Q 24.171875 66.40625 20.328125 58.90625 
Q 16.5 51.421875 16.5 36.375 
Q 16.5 21.390625 20.328125 13.890625 
Q 24.171875 6.390625 31.78125 6.390625 
Q 39.453125 6.390625 43.28125 13.890625 
Q 47.125 21.390625 47.125 36.375 
Q 47.125 51.421875 43.28125 58.90625 
Q 39.453125 66.40625 31.78125 66.40625 
z
M 31.78125 74.21875 
Q 44.046875 74.21875 50.515625 64.515625 
Q 56.984375 54.828125 56.984375 36.375 
Q 56.984375 17.96875 50.515625 8.265625 
Q 44.046875 -1.421875 31.78125 -1.421875 
Q 19.53125 -1.421875 13.0625 8.265625 
Q 6.59375 17.96875 6.59375 36.375 
Q 6.59375 54.828125 13.0625 64.515625 
Q 19.53125 74.21875 31.78125 74.21875 
z
" id="DejaVuSans-48"/>
     </defs>
     <g transform="translate(120.439142 214.23477)scale(0.1 -0.1)">
      <use xlink:href="#DejaVuSans-48"/>
     </g>
    </g>
   </g>
   <g id="xtick_3">
    <g id="line2d_4">
     <path d="M 204.813702 208.500027 
L 202.521894 210.002493 
" style="fill:none;stroke:#000000;stroke-linecap:square;stroke-width:0.8;"/>
    </g>
    <g id="text_4">
     <!-- 1 -->
     <g transform="translate(193.11438 229.982168)scale(0.1 -0.1)">
      <use xlink:href="#DejaVuSans-49"/>
     </g>
    </g>
   </g>
  </g>
  <g id="axis3d_2">
   <g id="line2d_5">
    <path d="M 302.626265 153.086553 
L 214.897263 211.305609 
" style="fill:none;stroke:#000000;stroke-linecap:square;stroke-width:0.8;"/>
   </g>
   <g id="text_5">
    <!-- y -->
    <defs>
     <path d="M 32.171875 -5.078125 
Q 28.375 -14.84375 24.75 -17.8125 
Q 21.140625 -20.796875 15.09375 -20.796875 
L 7.90625 -20.796875 
L 7.90625 -13.28125 
L 13.1875 -13.28125 
Q 16.890625 -13.28125 18.9375 -11.515625 
Q 21 -9.765625 23.484375 -3.21875 
L 25.09375 0.875 
L 2.984375 54.6875 
L 12.5 54.6875 
L 29.59375 11.921875 
L 46.6875 54.6875 
L 56.203125 54.6875 
z
" id="DejaVuSans-121"/>
    </defs>
    <g transform="translate(285.659129 207.381712)scale(0.1 -0.1)">
     <use xlink:href="#DejaVuSans-121"/>
    </g>
   </g>
   <g id="Line3DCollection_2">
    <path d="M 51.571961 66.032146 
L 58.120339 172.956254 
L 220.901308 207.321182 
" style="fill:none;stroke:#b0b0b0;stroke-width:0.8;"/>
    <path d="M 97.209785 44.423576 
L 101.278453 148.944758 
L 260.469264 181.062944 
" style="fill:none;stroke:#b0b0b0;stroke-width:0.8;"/>
    <path d="M 139.828335 24.244569 
L 141.718696 126.445381 
L 297.437117 156.530196 
" style="fill:none;stroke:#b0b0b0;stroke-width:0.8;"/>
   </g>
   <g id="xtick_4">
    <g id="line2d_6">
     <path d="M 219.538974 207.033578 
L 223.62902 207.897033 
" style="fill:none;stroke:#000000;stroke-linecap:square;stroke-width:0.8;"/>
    </g>
    <g id="text_6">
     <!-- −1 -->
     <g transform="translate(226.965475 226.130052)scale(0.1 -0.1)">
      <use xlink:href="#DejaVuSans-8722"/>
      <use x="83.789062" xlink:href="#DejaVuSans-49"/>
     </g>
    </g>
   </g>
   <g id="xtick_5">
    <g id="line2d_7">
     <path d="M 259.138973 180.794545 
L 263.132719 181.60032 
" style="fill:none;stroke:#000000;stroke-linecap:square;stroke-width:0.8;"/>
    </g>
    <g id="text_7">
     <!-- 0 -->
     <g transform="translate(270.245112 199.505772)scale(0.1 -0.1)">
      <use xlink:href="#DejaVuSans-48"/>
     </g>
    </g>
   </g>
   <g id="xtick_6">
    <g id="line2d_8">
     <path d="M 296.137666 156.279142 
L 300.038731 157.032828 
" style="fill:none;stroke:#000000;stroke-linecap:square;stroke-width:0.8;"/>
    </g>
    <g id="text_8">
     <!-- 1 -->
     <g transform="translate(306.767603 174.630097)scale(0.1 -0.1)">
      <use xlink:href="#DejaVuSans-49"/>
     </g>
    </g>
   </g>
  </g>
  <g id="axis3d_3">
   <g id="line2d_9">
    <path d="M 302.626265 153.086553 
L 309.120561 48.145466 
" style="fill:none;stroke:#000000;stroke-linecap:square;stroke-width:0.8;"/>
   </g>
   <g id="Line3DCollection_3">
    <path d="M 302.749786 151.090589 
L 147.374017 121.340379 
L 51.451176 174.556388 
" style="fill:none;stroke:#b0b0b0;stroke-width:0.8;"/>
    <path d="M 305.790226 101.960237 
L 146.626329 73.59687 
L 48.205767 124.373036 
" style="fill:none;stroke:#b0b0b0;stroke-width:0.8;"/>
    <path d="M 308.983989 50.352332 
L 145.842576 23.550504 
L 44.791059 71.571851 
" style="fill:none;stroke:#b0b0b0;stroke-width:0.8;"/>
   </g>
   <g id="xtick_7">
    <g id="line2d_10">
     <path d="M 301.453397 150.842366 
L 305.34526 151.587551 
" style="fill:none;stroke:#000000;stroke-linecap:square;stroke-width:0.8;"/>
    </g>
    <g id="text_9">
     <!-- −1 -->
     <g transform="translate(314.787552 156.876663)scale(0.1 -0.1)">
      <use xlink:href="#DejaVuSans-8722"/>
      <use x="83.789062" xlink:href="#DejaVuSans-49"/>
     </g>
    </g>
   </g>
   <g id="xtick_8">
    <g id="line2d_11">
     <path d="M 304.460886 101.723345 
L 308.451738 102.434525 
" style="fill:none;stroke:#000000;stroke-linecap:square;stroke-width:0.8;"/>
    </g>
    <g id="text_10">
     <!-- 0 -->
     <g transform="translate(322.486062 107.82914)scale(0.1 -0.1)">
      <use xlink:href="#DejaVuSans-48"/>
     </g>
    </g>
   </g>
   <g id="xtick_9">
    <g id="line2d_12">
     <path d="M 307.619981 50.128245 
L 311.714985 50.800996 
" style="fill:none;stroke:#000000;stroke-linecap:square;stroke-width:0.8;"/>
    </g>
    <g id="text_11">
     <!-- 1 -->
     <g transform="translate(326.171195 56.31481)scale(0.1 -0.1)">
      <use xlink:href="#DejaVuSans-49"/>
     </g>
    </g>
   </g>
  </g>
  <g id="axes_1">
   <g id="line2d_13">
    <defs>
     <path d="M 0 5 
C 1.326016 5 2.597899 4.473168 3.535534 3.535534 
C 4.473168 2.597899 5 1.326016 5 0 
C 5 -1.326016 4.473168 -2.597899 3.535534 -3.535534 
C 2.597899 -4.473168 1.326016 -5 0 -5 
C -1.326016 -5 -2.597899 -4.473168 -3.535534 -3.535534 
C -4.473168 -2.597899 -5 -1.326016 -5 0 
C -5 1.326016 -4.473168 2.597899 -3.535534 3.535534 
C -2.597899 4.473168 -1.326016 5 0 5 
z
" id="m088afe44df" style="stroke:#ff0000;"/>
    </defs>
    <g clip-path="url(#pa89d35a195)">
     <use style="fill:#ff0000;stroke:#ff0000;" x="179.124324" xlink:href="#m088afe44df" y="112.981622"/>
    </g>
   </g>
   <g id="Line3DCollection_4">
    <path clip-path="url(#pa89d35a195)" d="M 65.111718 122.902025 
L 67.786559 114.683274 
L 70.491104 106.909922 
L 73.223586 99.588225 
L 75.982196 92.723846 
L 78.765084 86.321833 
L 81.570369 80.386614 
L 84.396139 74.92198 
L 87.240454 69.931083 
L 90.101357 65.416427 
L 92.97687 61.379862 
L 95.865006 57.822589 
L 98.763769 54.745155 
L 101.671161 52.14746 
L 104.585182 50.028757 
L 107.503842 48.387665 
L 110.425159 47.222175 
L 113.347166 46.529662 
L 116.267913 46.306897 
L 119.185476 46.550066 
L 122.097955 47.254779 
L 125.003482 48.416098 
L 127.900221 50.028547 
L 130.786376 52.086142 
L 133.660189 54.582404 
L 136.519949 57.510393 
L 139.363988 60.862722 
L 142.190689 64.631589 
L 144.998486 68.808801 
L 147.785867 73.385798 
L 150.551375 78.353685 
" style="fill:none;stroke:#1f77b4;stroke-width:1.5;"/>
    <path clip-path="url(#pa89d35a195)" d="M 75.128833 137.471677 
L 77.80356 129.296847 
L 80.505629 121.562578 
L 83.233275 114.275069 
L 85.984695 107.439929 
L 88.75805 101.062166 
L 91.55147 95.146172 
L 94.36306 89.695715 
L 97.190901 84.713932 
L 100.033055 80.20332 
L 102.887573 76.165735 
L 105.752495 72.602387 
L 108.625856 69.513847 
L 111.505691 66.900043 
L 114.39004 64.76027 
L 117.27695 63.093194 
L 120.164481 61.896863 
L 123.050711 61.168715 
L 125.933735 60.905595 
L 128.811678 61.103766 
L 131.682689 61.75893 
L 134.544953 62.866238 
L 137.396686 64.420319 
L 140.236147 66.415291 
L 143.061635 68.844792 
L 145.871494 71.701995 
L 148.664115 74.979639 
L 151.437939 78.670045 
L 154.19146 82.765153 
L 156.923226 87.256536 
L 159.631838 92.135435 
" style="fill:none;stroke:#1f77b4;stroke-width:1.5;"/>
    <path clip-path="url(#pa89d35a195)" d="M 84.98906 150.146284 
L 87.665922 142.005946 
L 90.367842 134.302171 
L 93.093055 127.04111 
L 95.83976 120.228333 
L 98.606125 113.868816 
L 101.39029 107.966926 
L 104.19037 102.526414 
L 107.004464 97.550406 
L 109.830653 93.041395 
L 112.667007 89.001241 
L 115.511593 85.431168 
L 118.362472 82.331764 
L 121.21771 79.702984 
L 124.075378 77.544155 
L 126.93356 75.853985 
L 129.790353 74.630565 
L 132.643873 73.871391 
L 135.49226 73.573364 
L 138.333681 73.732815 
L 141.166333 74.345515 
L 143.988445 75.406693 
L 146.798286 76.911059 
L 149.594164 78.85282 
L 152.37443 81.225703 
L 155.137481 84.022977 
L 157.881763 87.23748 
L 160.605773 90.861637 
L 163.308059 94.887492 
L 165.987225 99.306729 
L 168.641933 104.110697 
" style="fill:none;stroke:#1f77b4;stroke-width:1.5;"/>
    <path clip-path="url(#pa89d35a195)" d="M 94.720141 160.975356 
L 97.401403 152.8603 
L 100.105502 145.178616 
L 102.830672 137.936424 
L 105.575112 131.139266 
L 108.336993 124.792094 
L 111.114459 118.899259 
L 113.905638 113.464501 
L 116.708636 108.490939 
L 119.521553 103.981067 
L 122.342475 99.936751 
L 125.16949 96.359224 
L 128.000682 93.249092 
L 130.834145 90.606332 
L 133.667978 88.430298 
L 136.500294 86.719729 
L 139.329226 85.472757 
L 142.152927 84.686917 
L 144.969573 84.359159 
L 147.777371 84.485865 
L 150.574561 85.062863 
L 153.359417 86.085443 
L 156.130253 87.548377 
L 158.885424 89.445941 
L 161.623329 91.771933 
L 164.342417 94.519698 
L 167.041183 97.682149 
L 169.718177 101.251792 
L 172.372001 105.220753 
L 175.001311 109.5808 
L 177.604823 114.32337 
" style="fill:none;stroke:#1f77b4;stroke-width:1.5;"/>
    <path clip-path="url(#pa89d35a195)" d="M 104.348875 169.998059 
L 107.036824 161.899229 
L 109.745445 154.23137 
L 112.472964 147.00058 
L 115.217577 140.212385 
L 117.977454 133.871724 
L 120.750743 127.982941 
L 123.535577 122.549769 
L 126.330072 117.575326 
L 129.132337 113.06211 
L 131.940474 109.011992 
L 134.752587 105.426218 
L 137.566782 102.305405 
L 140.381172 99.64955 
L 143.193884 97.458028 
L 146.003058 95.729605 
L 148.806857 94.462439 
L 151.603465 93.654099 
L 154.391094 93.301572 
L 157.167989 93.401276 
L 159.932427 93.949081 
L 162.682724 94.940321 
L 165.417234 96.369817 
L 168.134359 98.231893 
L 170.832543 100.5204 
L 173.51028 103.228735 
L 176.166117 106.34987 
L 178.79865 109.876367 
L 181.406533 113.800412 
L 183.988475 118.113834 
L 186.543241 122.808132 
" style="fill:none;stroke:#1f77b4;stroke-width:1.5;"/>
    <path clip-path="url(#pa89d35a195)" d="M 113.901363 177.243654 
L 116.598325 169.152092 
L 119.313833 161.489872 
L 122.046104 154.263084 
L 124.793328 147.477249 
L 127.553672 141.137303 
L 130.325284 135.247588 
L 133.106297 129.811838 
L 135.894834 124.833177 
L 138.68901 120.314106 
L 141.48694 116.256505 
L 144.286741 112.66163 
L 147.086534 109.530111 
L 149.884453 106.861959 
L 152.678644 104.656565 
L 155.467275 102.912712 
L 158.248533 101.628582 
L 161.020632 100.801763 
L 163.781816 100.429266 
L 166.530362 100.507537 
L 169.264584 101.032472 
L 171.982835 101.999434 
L 174.68351 103.403274 
L 177.365051 105.238349 
L 180.025945 107.498542 
L 182.664732 110.177285 
L 185.280004 113.267584 
L 187.870404 116.762039 
L 190.434634 120.652872 
L 192.971452 124.931951 
L 195.479676 129.590812 
" style="fill:none;stroke:#1f77b4;stroke-width:1.5;"/>
    <path clip-path="url(#pa89d35a195)" d="M 123.403245 182.73181 
L 126.111593 174.638597 
L 128.836391 166.973861 
L 131.575845 159.743697 
L 134.328134 152.953631 
L 137.091418 146.608606 
L 139.863842 140.71297 
L 142.643537 135.270467 
L 145.428628 130.284225 
L 148.217235 125.756757 
L 151.007481 121.689952 
L 153.797492 118.085075 
L 156.585403 114.942766 
L 159.369363 112.263047 
L 162.147538 110.045321 
L 164.918114 108.288382 
L 167.679304 106.990423 
L 170.429347 106.149046 
L 173.166516 105.761275 
L 175.889119 105.823567 
L 178.595503 106.331833 
L 181.284054 107.28145 
L 183.953207 108.667282 
L 186.601441 110.4837 
L 189.227285 112.724602 
L 191.829321 115.383434 
L 194.406183 118.453218 
L 196.956561 121.926569 
L 199.479204 125.795724 
L 201.972917 130.052565 
L 204.436567 134.688646 
" style="fill:none;stroke:#1f77b4;stroke-width:1.5;"/>
    <path clip-path="url(#pa89d35a195)" d="M 132.879933 186.472779 
L 135.602101 178.36898 
L 138.338642 170.693553 
L 141.087746 163.452611 
L 143.84758 156.651698 
L 146.616293 150.295773 
L 149.392023 144.389197 
L 152.172896 138.935729 
L 154.957036 133.938512 
L 157.742565 129.400067 
L 160.527609 125.322296 
L 163.3103 121.706473 
L 166.088784 118.553247 
L 168.861223 115.862646 
L 171.625798 113.634079 
L 174.380713 111.866347 
L 177.1242 110.557645 
L 179.854524 109.705578 
L 182.569983 109.30717 
L 185.268911 109.358882 
L 187.949686 109.856621 
L 190.61073 110.795764 
L 193.250508 112.171173 
L 195.867539 113.977215 
L 198.46039 116.207784 
L 201.027682 118.856322 
L 203.568092 121.915844 
L 206.080356 125.378959 
L 208.563265 129.237898 
L 211.015671 133.484536 
L 213.436489 138.110419 
" style="fill:none;stroke:#1f77b4;stroke-width:1.5;"/>
    <path clip-path="url(#pa89d35a195)" d="M 142.356832 188.467451 
L 145.095329 180.344054 
L 147.846131 172.64969 
L 150.607406 165.390502 
L 153.377305 158.572062 
L 156.153965 152.199354 
L 158.935513 146.276764 
L 161.720067 140.80807 
L 164.505746 135.796431 
L 167.290669 131.244387 
L 170.072963 127.15385 
L 172.850766 123.526102 
L 175.622229 120.3618 
L 178.385522 117.660976 
L 181.13884 115.42304 
L 183.880402 113.64679 
L 186.608459 112.330416 
L 189.321294 111.471517 
L 192.017228 111.067108 
L 194.694624 111.113636 
L 197.351886 111.606994 
L 199.987466 112.542543 
L 202.599863 113.915124 
L 205.187629 115.719085 
L 207.749369 117.948297 
L 210.283744 120.596177 
L 212.789472 123.655713 
L 215.265329 127.119489 
L 217.710151 130.979705 
L 220.122837 135.228206 
L 222.502346 139.856508 
" style="fill:none;stroke:#1f77b4;stroke-width:1.5;"/>
    <path clip-path="url(#pa89d35a195)" d="M 151.859577 188.707276 
L 154.617001 180.555137 
L 157.384656 172.833466 
L 160.160688 165.548449 
L 162.94323 158.705698 
L 165.730399 152.310233 
L 168.520307 146.366471 
L 171.311065 140.878216 
L 174.100779 135.848652 
L 176.887566 131.280336 
L 179.66955 127.175192 
L 182.444867 123.534514 
L 185.211674 120.358962 
L 187.968147 117.648567 
L 190.71249 115.402737 
L 193.442934 113.620259 
L 196.157746 112.299313 
L 198.855226 111.437477 
L 201.533718 111.031748 
L 204.191606 111.078545 
L 206.82732 111.573734 
L 209.439342 112.512643 
L 212.026202 113.890079 
L 214.586485 115.700348 
L 217.118832 117.937279 
L 219.62194 120.594248 
L 222.094568 123.664193 
L 224.535532 127.139649 
L 226.943714 131.012765 
L 229.318056 135.275333 
L 231.657564 139.918814 
" style="fill:none;stroke:#1f77b4;stroke-width:1.5;"/>
    <path clip-path="url(#pa89d35a195)" d="M 161.41426 187.174063 
L 164.193314 178.983844 
L 166.98051 171.226318 
L 169.773969 163.907728 
L 172.571797 157.033738 
L 175.372094 150.609413 
L 178.172954 144.639211 
L 180.97247 139.12697 
L 183.76874 134.075901 
L 186.559869 129.488582 
L 189.343976 125.366954 
L 192.119196 121.712318 
L 194.883685 118.525337 
L 197.635623 115.806041 
L 200.37322 113.553824 
L 203.094718 111.76746 
L 205.798394 110.445105 
L 208.482568 109.584313 
L 211.145598 109.182044 
L 213.785892 109.23468 
L 216.401904 109.738045 
L 218.992142 110.687416 
L 221.555167 112.077547 
L 224.089595 113.902688 
L 226.594101 116.156607 
L 229.06742 118.832611 
L 231.508348 121.923573 
L 233.915745 125.421954 
L 236.288533 129.31983 
L 238.6257 133.608915 
L 240.926297 138.280592 
" style="fill:none;stroke:#1f77b4;stroke-width:1.5;"/>
    <path clip-path="url(#pa89d35a195)" d="M 171.047683 183.839641 
L 173.851192 175.601745 
L 176.660726 167.79958 
L 179.474377 160.439461 
L 182.290224 153.527116 
L 185.106341 147.067665 
L 187.920802 141.065617 
L 190.731681 135.524849 
L 193.537059 130.448606 
L 196.335032 125.839492 
L 199.123707 121.699462 
L 201.901214 118.029828 
L 204.665706 114.831253 
L 207.415364 112.103759 
L 210.148402 109.846725 
L 212.863069 108.058901 
L 215.557653 106.738413 
L 218.230486 105.882776 
L 220.879944 105.488905 
L 223.504453 105.553129 
L 226.102492 106.071213 
L 228.672593 107.038369 
L 231.213344 108.44928 
L 233.723394 110.298118 
L 236.201451 112.57857 
L 238.646287 115.283856 
L 241.056735 118.406757 
L 243.431697 121.93964 
L 245.770136 125.874482 
L 248.071086 130.202895 
L 250.333645 134.916156 
" style="fill:none;stroke:#1f77b4;stroke-width:1.5;"/>
    <path clip-path="url(#pa89d35a195)" d="M 180.787616 178.66537 
L 183.618544 170.369875 
L 186.453342 162.513993 
L 189.290066 155.104124 
L 192.126766 148.146072 
L 194.961486 141.645029 
L 197.792274 135.605557 
L 200.617181 130.031586 
L 203.434272 124.926396 
L 206.241623 120.292621 
L 209.037332 116.132235 
L 211.819518 112.446557 
L 214.586328 109.236251 
L 217.335943 106.501323 
L 220.066576 104.241133 
L 222.776481 102.454401 
L 225.463954 101.139211 
L 228.127339 100.293027 
L 230.765026 99.912707 
L 233.37546 99.994514 
L 235.95714 100.534135 
L 238.508623 101.5267 
L 241.028525 102.966802 
L 243.515524 104.848516 
L 245.968363 107.165424 
L 248.385847 109.910639 
L 250.76685 113.076825 
L 253.110312 116.656231 
L 255.415243 120.640707 
L 257.680719 125.02174 
L 259.905888 129.790475 
" style="fill:none;stroke:#1f77b4;stroke-width:1.5;"/>
    <path clip-path="url(#pa89d35a195)" d="M 190.663078 171.601505 
L 193.524552 163.238088 
L 196.387688 155.319047 
L 199.250503 147.850883 
L 202.111011 140.839492 
L 204.967223 134.290144 
L 207.817157 128.20747 
L 210.658839 122.595455 
L 213.490308 117.457426 
L 216.309624 112.796046 
L 219.114865 108.613312 
L 221.904141 104.910549 
L 224.67559 101.688417 
L 227.427386 98.946907 
L 230.157741 96.685351 
L 232.864913 94.902428 
L 235.547202 93.596171 
L 238.202961 92.763984 
L 240.830595 92.402651 
L 243.428565 92.508351 
L 245.995389 93.076681 
L 248.529648 94.102669 
L 251.029985 95.580795 
L 253.495108 97.505017 
L 255.923792 99.86879 
L 258.314879 102.665092 
L 260.667281 105.88645 
L 262.97998 109.524965 
L 265.25203 113.572337 
L 267.482552 118.019897 
L 269.670744 122.858631 
" style="fill:none;stroke:#1f77b4;stroke-width:1.5;"/>
    <path clip-path="url(#pa89d35a195)" d="M 200.704653 162.586365 
L 203.599985 154.144224 
L 206.494704 146.152148 
L 209.386784 138.616759 
L 212.274196 131.544056 
L 215.154916 124.939403 
L 218.026926 118.807509 
L 220.888222 113.152423 
L 223.736817 107.977523 
L 226.570745 103.285509 
L 229.388067 99.078398 
L 232.186876 95.357524 
L 234.965297 92.123539 
L 237.721497 89.376413 
L 240.453685 87.115443 
L 243.160117 85.33926 
L 245.839098 84.045835 
L 248.488988 83.232496 
L 251.108204 82.895939 
L 253.695222 83.032245 
L 256.248581 83.636899 
L 258.766882 84.704805 
L 261.248795 86.230313 
L 263.693059 88.207238 
L 266.098481 90.628884 
L 268.46394 93.48807 
L 270.788388 96.777156 
L 273.070848 100.488069 
L 275.310419 104.612329 
L 277.506272 109.141083 
L 279.657652 114.065127 
" style="fill:none;stroke:#1f77b4;stroke-width:1.5;"/>
    <path clip-path="url(#pa89d35a195)" d="M 210.94483 151.545314 
L 213.877544 143.013076 
L 216.807288 134.937577 
L 219.731987 127.325574 
L 222.649565 120.183191 
L 225.557956 113.515893 
L 228.455103 107.328483 
L 231.338967 101.625082 
L 234.20753 96.409124 
L 237.058797 91.68335 
L 239.890808 87.4498 
L 242.701634 83.709816 
L 245.489387 80.464038 
L 248.252222 77.712412 
L 250.988341 75.45419 
L 253.695998 73.687945 
L 256.3735 72.411574 
L 259.019214 71.622315 
L 261.631566 71.31676 
L 264.209046 71.490873 
L 266.750211 72.140006 
L 269.253687 73.25892 
L 271.718169 74.841809 
L 274.142425 76.882319 
L 276.525297 79.373579 
L 278.865701 82.308218 
L 281.162629 85.678402 
L 283.415149 89.475853 
L 285.622407 93.691882 
L 287.783622 98.317418 
L 289.898093 103.343034 
" style="fill:none;stroke:#1f77b4;stroke-width:1.5;"/>
    <path clip-path="url(#pa89d35a195)" d="M 65.111718 122.902025 
L 70.141665 130.427245 
L 75.128833 137.471677 
L 80.076799 144.042518 
L 84.98906 150.146284 
L 89.86905 155.788827 
L 94.720141 160.975356 
L 99.545657 165.710447 
L 104.348875 169.998059 
L 109.133039 173.841543 
L 113.901363 177.243654 
L 118.657039 180.206551 
L 123.403245 182.73181 
L 128.143153 184.820417 
L 132.879933 186.472779 
L 137.616762 187.688714 
L 142.356832 188.467451 
L 147.103356 188.807627 
L 151.859577 188.707276 
L 156.62877 188.163821 
L 161.41426 187.174063 
L 166.21942 185.734166 
L 171.047683 183.839641 
L 175.902555 181.485326 
L 180.787616 178.66537 
L 185.706535 175.373201 
L 190.663078 171.601505 
L 195.66112 167.342192 
L 200.704653 162.586365 
L 205.7978 157.324282 
L 210.94483 151.545314 
" style="fill:none;stroke:#1f77b4;stroke-width:1.5;"/>
    <path clip-path="url(#pa89d35a195)" d="M 70.491104 106.909922 
L 75.519183 114.478927 
L 80.505629 121.562578 
L 85.454015 128.168136 
L 90.367842 134.302171 
L 95.250546 139.970582 
L 100.105502 145.178616 
L 104.93604 149.930884 
L 109.745445 154.23137 
L 114.536968 158.083444 
L 119.313833 161.489872 
L 124.079243 164.45282 
L 128.836391 166.973861 
L 133.588462 169.053975 
L 138.338642 170.693553 
L 143.090128 171.892391 
L 147.846131 172.64969 
L 152.609885 172.964051 
L 157.384656 172.833466 
L 162.173748 172.255307 
L 166.98051 171.226318 
L 171.808347 169.742596 
L 176.660726 167.79958 
L 181.541184 165.392027 
L 186.453342 162.513993 
L 191.400906 159.158807 
L 196.387688 155.319047 
L 201.417606 150.986503 
L 206.494704 146.152148 
L 211.623157 140.8061 
L 216.807288 134.937577 
" style="fill:none;stroke:#1f77b4;stroke-width:1.5;"/>
    <path clip-path="url(#pa89d35a195)" d="M 75.982196 92.723846 
L 81.003649 100.326413 
L 85.984695 107.439929 
L 90.9289 114.071699 
L 95.83976 120.228333 
L 100.720706 125.915763 
L 105.575112 131.139266 
L 110.406307 135.903472 
L 115.217577 140.212385 
L 120.012174 144.069386 
L 124.793328 147.477249 
L 129.564249 150.438141 
L 134.328134 152.953631 
L 139.088178 155.024691 
L 143.84758 156.651698 
L 148.609547 157.834429 
L 153.377305 158.572062 
L 158.154105 158.863166 
L 162.94323 158.705698 
L 167.748003 158.09699 
L 172.571797 157.033738 
L 177.41804 155.511987 
L 182.290224 153.527116 
L 187.191916 151.073816 
L 192.126766 148.146072 
L 197.098516 144.737135 
L 202.111011 140.839492 
L 207.16821 136.444843 
L 212.274196 131.544056 
L 217.433191 126.127139 
L 222.649565 120.183191 
" style="fill:none;stroke:#1f77b4;stroke-width:1.5;"/>
    <path clip-path="url(#pa89d35a195)" d="M 81.570369 80.386614 
L 86.580473 88.012322 
L 91.55147 95.146172 
L 96.486915 101.795495 
L 101.39029 107.966926 
L 106.265016 113.666417 
L 111.114459 118.899259 
L 115.941941 123.670097 
L 120.750743 127.982941 
L 125.544116 131.84118 
L 130.325284 135.247588 
L 135.09746 138.20433 
L 139.863842 140.71297 
L 144.627628 142.774472 
L 149.392023 144.389197 
L 154.160239 145.556909 
L 158.935513 146.276764 
L 163.721104 146.547308 
L 168.520307 146.366471 
L 173.336462 145.731551 
L 178.172954 144.639211 
L 183.03323 143.085454 
L 187.920802 141.065617 
L 192.839259 138.574341 
L 197.792274 135.605557 
L 202.783615 132.152458 
L 207.817157 128.20747 
L 212.896888 123.762221 
L 218.026926 118.807509 
L 223.211528 113.333258 
L 228.455103 107.328483 
" style="fill:none;stroke:#1f77b4;stroke-width:1.5;"/>
    <path clip-path="url(#pa89d35a195)" d="M 87.240454 69.931083 
L 92.234546 77.569388 
L 97.190901 84.713932 
L 102.113052 91.372058 
L 107.004464 97.550406 
L 111.868541 103.254934 
L 116.708636 108.490939 
L 121.528056 113.263066 
L 126.330072 117.575326 
L 131.117925 121.431107 
L 135.894834 124.833177 
L 140.664002 127.783698 
L 145.428628 130.284225 
L 150.191905 132.335713 
L 154.957036 133.938512 
L 159.727237 135.092371 
L 164.505746 135.796431 
L 169.295826 136.049222 
L 174.100779 135.848652 
L 178.923952 135.192 
L 183.76874 134.075901 
L 188.6386 132.496335 
L 193.537059 130.448606 
L 198.46772 127.927328 
L 203.434272 124.926396 
L 208.440503 121.438967 
L 213.490308 117.457426 
L 218.587699 112.973361 
L 223.736817 107.977523 
L 228.941947 102.459791 
L 234.20753 96.409124 
" style="fill:none;stroke:#1f77b4;stroke-width:1.5;"/>
    <path clip-path="url(#pa89d35a195)" d="M 92.97687 61.379862 
L 97.950375 69.020173 
L 102.887573 76.165735 
L 107.791971 82.82388 
L 112.667007 89.001241 
L 117.516065 94.703769 
L 122.342475 99.936751 
L 127.149527 104.704824 
L 131.940474 109.011992 
L 136.718543 112.861632 
L 141.48694 116.256505 
L 146.248857 119.198763 
L 151.007481 121.689952 
L 155.766 123.731016 
L 160.527609 125.322296 
L 165.295518 126.463531 
L 170.072963 127.15385 
L 174.863207 127.391771 
L 179.66955 127.175192 
L 184.49534 126.501378 
L 189.343976 125.366954 
L 194.218921 123.767884 
L 199.123707 121.699462 
L 204.061944 119.156285 
L 209.037332 116.132235 
L 214.05367 112.620453 
L 219.114865 108.613312 
L 224.224945 104.102381 
L 229.388067 99.078398 
L 234.608535 93.531223 
L 239.890808 87.4498 
" style="fill:none;stroke:#1f77b4;stroke-width:1.5;"/>
    <path clip-path="url(#pa89d35a195)" d="M 98.763769 54.745155 
L 103.712225 62.376914 
L 108.625856 69.513847 
L 113.508135 76.163261 
L 118.362472 82.331764 
L 123.192219 88.025286 
L 128.000682 93.249092 
L 132.791126 98.007804 
L 137.566782 102.305405 
L 142.330855 106.145258 
L 147.086534 109.530111 
L 151.836993 112.462102 
L 156.585403 114.942766 
L 161.334939 116.973037 
L 166.088784 118.553247 
L 170.850139 119.683126 
L 175.622229 120.3618 
L 180.408308 120.587781 
L 185.211674 120.358962 
L 190.035667 119.672606 
L 194.883685 118.525337 
L 199.759187 116.913122 
L 204.665706 114.831253 
L 209.606852 112.274334 
L 214.586328 109.236251 
L 219.607937 105.710151 
L 224.67559 101.688417 
L 229.793321 97.16263 
L 234.965297 92.123539 
L 240.195829 86.56102 
L 245.489387 80.464038 
" style="fill:none;stroke:#1f77b4;stroke-width:1.5;"/>
    <path clip-path="url(#pa89d35a195)" d="M 104.585182 50.028757 
L 109.504261 57.641513 
L 114.39004 64.76027 
L 119.245955 71.392295 
L 124.075378 77.544155 
L 128.881628 83.221745 
L 133.667978 88.430298 
L 138.437662 93.174406 
L 143.193884 97.458028 
L 147.939824 101.284505 
L 152.678644 104.656565 
L 157.413499 107.576329 
L 162.147538 110.045321 
L 166.883915 112.064462 
L 171.625798 113.634079 
L 176.37637 114.753898 
L 181.13884 115.42304 
L 185.916453 115.640021 
L 190.71249 115.402737 
L 195.530283 114.70846 
L 200.37322 113.553824 
L 205.244752 111.934808 
L 210.148402 109.846725 
L 215.087778 107.284196 
L 220.066576 104.241133 
L 225.088594 100.710714 
L 230.157741 96.685351 
L 235.27805 92.156664 
L 240.453685 87.115443 
L 245.688958 81.551614 
L 250.988341 75.45419 
" style="fill:none;stroke:#1f77b4;stroke-width:1.5;"/>
    <path clip-path="url(#pa89d35a195)" d="M 110.425159 47.222175 
L 115.310689 54.805658 
L 120.164481 61.896863 
L 124.989926 68.502994 
L 129.790353 74.630565 
L 134.569041 80.285423 
L 139.329226 85.472757 
L 144.074108 90.19712 
L 148.806857 94.462439 
L 153.530621 98.272025 
L 158.248533 101.628582 
L 162.963719 104.534212 
L 167.679304 106.990423 
L 172.398416 108.998128 
L 177.1242 110.557645 
L 181.859818 111.668699 
L 186.608459 112.330416 
L 191.373346 112.541317 
L 196.157746 112.299313 
L 200.964971 111.60169 
L 205.798394 110.445105 
L 210.661452 108.825565 
L 215.557653 106.738413 
L 220.490593 104.17831 
L 225.463954 101.139211 
L 230.481524 97.614341 
L 235.547202 93.596171 
L 240.665008 89.076382 
L 245.839098 84.045835 
L 251.073775 78.494532 
L 256.3735 72.411574 
" style="fill:none;stroke:#1f77b4;stroke-width:1.5;"/>
    <path clip-path="url(#pa89d35a195)" d="M 116.267913 46.306897 
L 121.115899 53.851091 
L 125.933735 60.905595 
L 130.724761 67.477537 
L 135.49226 73.573364 
L 140.239466 79.198859 
L 144.969573 84.359159 
L 149.685738 89.058768 
L 154.391094 93.301572 
L 159.088754 97.090846 
L 163.781816 100.429266 
L 168.473372 103.318912 
L 173.166516 105.761275 
L 177.864348 107.757256 
L 182.569983 109.30717 
L 187.286555 110.410743 
L 192.017228 111.067108 
L 196.765202 111.2748 
L 201.533718 111.031748 
L 206.326067 110.335266 
L 211.145598 109.182044 
L 215.995727 107.568126 
L 220.879944 105.488905 
L 225.801822 102.939093 
L 230.765026 99.912707 
L 235.773324 96.403044 
L 240.830595 92.402651 
L 245.940843 87.903296 
L 251.108204 82.895939 
L 256.336964 77.370687 
L 261.631566 71.31676 
" style="fill:none;stroke:#1f77b4;stroke-width:1.5;"/>
    <path clip-path="url(#pa89d35a195)" d="M 122.097955 47.254779 
L 126.904594 54.749985 
L 131.682689 61.75893 
L 136.435525 68.288652 
L 141.166333 74.345515 
L 145.878296 79.935228 
L 150.574561 85.062863 
L 155.258242 89.732869 
L 159.932427 93.949081 
L 164.600188 97.714734 
L 169.264584 101.032472 
L 173.92867 103.904347 
L 178.595503 106.331833 
L 183.268148 108.315821 
L 187.949686 109.856621 
L 192.643222 110.953964 
L 197.351886 111.606994 
L 202.078848 111.814265 
L 206.82732 111.573734 
L 211.600565 110.882751 
L 216.401904 109.738045 
L 221.234726 108.135716 
L 226.102492 106.071213 
L 231.008751 103.539321 
L 235.95714 100.534135 
L 240.951402 97.049039 
L 245.995389 93.076681 
L 251.093078 88.608941 
L 256.248581 83.636899 
L 261.466153 78.150798 
L 266.750211 72.140006 
" style="fill:none;stroke:#1f77b4;stroke-width:1.5;"/>
    <path clip-path="url(#pa89d35a195)" d="M 127.900221 50.028547 
L 132.661918 57.465445 
L 137.396686 64.420319 
L 142.107751 70.900101 
L 146.798286 76.911059 
L 151.471422 82.458819 
L 156.130253 87.548377 
L 160.777843 92.184116 
L 165.417234 96.369817 
L 170.051451 100.108668 
L 174.68351 103.403274 
L 179.316423 106.255662 
L 183.953207 108.667282 
L 188.596888 110.639016 
L 193.250508 112.171173 
L 197.917135 113.263489 
L 202.599863 113.915124 
L 207.301826 114.124657 
L 212.026202 113.890079 
L 216.77622 113.208781 
L 221.555167 112.077547 
L 226.366398 110.492539 
L 231.213344 108.44928 
L 236.099518 105.942637 
L 241.028525 102.966802 
L 246.004074 99.515266 
L 251.029985 95.580795 
L 256.1102 91.155402 
L 261.248795 86.230313 
L 266.449992 80.795934 
L 271.718169 74.841809 
" style="fill:none;stroke:#1f77b4;stroke-width:1.5;"/>
    <path clip-path="url(#pa89d35a195)" d="M 133.660189 54.582404 
L 138.373568 61.952107 
L 143.061635 68.844792 
L 147.727551 75.26727 
L 152.37443 81.225703 
L 157.005343 86.72562 
L 161.623329 91.771933 
L 166.231399 96.368954 
L 170.832543 100.5204 
L 175.429735 104.229408 
L 180.025945 107.498542 
L 184.624138 110.329796 
L 189.227285 112.724602 
L 193.838369 114.683828 
L 198.46039 116.207784 
L 203.096371 117.296213 
L 207.749369 117.948297 
L 212.422477 118.162642 
L 217.118832 117.937279 
L 221.841623 117.269653 
L 226.594101 116.156607 
L 231.37958 114.594376 
L 236.201451 112.57857 
L 241.06319 110.104152 
L 245.968363 107.165424 
L 250.920637 103.756002 
L 255.923792 99.86879 
L 260.981729 95.495952 
L 266.098481 90.628884 
L 271.278226 85.258177 
L 276.525297 79.373579 
" style="fill:none;stroke:#1f77b4;stroke-width:1.5;"/>
    <path clip-path="url(#pa89d35a195)" d="M 139.363988 60.862722 
L 144.025903 68.156825 
L 148.664115 74.979639 
L 153.281719 81.337842 
L 157.881763 87.23748 
L 162.467258 92.683975 
L 167.041183 97.682149 
L 171.606491 102.23623 
L 176.166117 106.34987 
L 180.722982 110.026148 
L 185.280004 113.267584 
L 189.840096 116.076137 
L 194.406183 118.453218 
L 198.981197 120.399684 
L 203.568092 121.915844 
L 208.169847 123.001453 
L 212.789472 123.655713 
L 217.430014 123.877268 
L 222.094568 123.664193 
L 226.786277 123.013989 
L 231.508348 121.923573 
L 236.264052 120.389261 
L 241.056735 118.406757 
L 245.889828 115.971137 
L 250.76685 113.076825 
L 255.691424 109.717577 
L 260.667281 105.88645 
L 265.698275 101.575782 
L 270.788388 96.777156 
L 275.941746 91.481371 
L 281.162629 85.678402 
" style="fill:none;stroke:#1f77b4;stroke-width:1.5;"/>
    <path clip-path="url(#pa89d35a195)" d="M 144.998486 68.808801 
L 149.606027 76.019419 
L 154.19146 82.765153 
L 158.757811 89.052539 
L 163.308059 94.887492 
L 167.84515 100.275324 
L 172.372001 105.220753 
L 176.891503 109.727924 
L 181.406533 113.800412 
L 185.919957 117.441239 
L 190.434634 120.652872 
L 194.953427 123.437239 
L 199.479204 125.795724 
L 204.014849 127.729174 
L 208.563265 129.237898 
L 213.127378 130.321666 
L 217.710151 130.979705 
L 222.314582 131.210695 
L 226.943714 131.012765 
L 231.600646 130.383479 
L 236.288533 129.31983 
L 241.010597 127.818227 
L 245.770136 125.874482 
L 250.570528 123.483788 
L 255.415243 120.640707 
L 260.307851 117.339147 
L 265.25203 113.572337 
L 270.251577 109.332801 
L 275.310419 104.612329 
L 280.432622 99.401948 
L 285.622407 93.691882 
" style="fill:none;stroke:#1f77b4;stroke-width:1.5;"/>
    <path clip-path="url(#pa89d35a195)" d="M 150.551375 78.353685 
L 155.101873 85.473487 
L 159.631838 92.135435 
L 164.144221 98.345912 
L 168.641933 104.110697 
L 173.12785 109.434978 
L 177.604823 114.32337 
L 182.075682 118.779921 
L 186.543241 122.808132 
L 191.010305 126.410956 
L 195.479676 129.590812 
L 199.954159 132.349589 
L 204.436567 134.688646 
L 208.929727 136.60882 
L 213.436489 138.110419 
L 217.959726 139.19323 
L 222.502346 139.856508 
L 227.067295 140.098975 
L 231.657564 139.918814 
L 236.276198 139.313661 
L 240.926297 138.280592 
L 245.611032 136.816115 
L 250.333645 134.916156 
L 255.097459 132.576039 
L 259.905888 129.790475 
L 264.762443 126.553535 
L 269.670744 122.858631 
L 274.634526 118.69849 
L 279.657652 114.065127 
L 284.744124 108.949811 
L 289.898093 103.343034 
" style="fill:none;stroke:#1f77b4;stroke-width:1.5;"/>
   </g>
  </g>
 </g>
 <defs>
  <clipPath id="pa89d35a195">
   <rect height="217.44" width="334.8" x="7.2" y="7.2"/>
  </clipPath>
 </defs>
</svg>
