<?xml version="1.0" encoding="utf-8" standalone="no"?>
<!DOCTYPE svg PUBLIC "-//W3C//DTD SVG 1.1//EN"
  "http://www.w3.org/Graphics/SVG/1.1/DTD/svg11.dtd">
<!-- Created with matplotlib (https://matplotlib.org/) -->
<svg height="180.65625pt" version="1.1" viewBox="0 0 245.120313 180.65625" width="245.120313pt" xmlns="http://www.w3.org/2000/svg" xmlns:xlink="http://www.w3.org/1999/xlink">
 <defs>
  <style type="text/css">
*{stroke-linecap:butt;stroke-linejoin:round;}
  </style>
 </defs>
 <g id="figure_1">
  <g id="patch_1">
   <path d="M 0 180.65625 
L 245.120313 180.65625 
L 245.120313 0 
L 0 0 
z
" style="fill:none;"/>
  </g>
  <g id="axes_1">
   <g id="patch_2">
    <path d="M 42.620312 143.1 
L 237.920313 143.1 
L 237.920313 7.2 
L 42.620312 7.2 
z
" style="fill:#ffffff;"/>
   </g>
   <g id="matplotlib.axis_1">
    <g id="xtick_1">
     <g id="line2d_1">
      <defs>
       <path d="M 0 0 
L 0 3.5 
" id="m1fafa808ee" style="stroke:#000000;stroke-width:0.8;"/>
      </defs>
      <g>
       <use style="stroke:#000000;stroke-width:0.8;" x="51.497585" xlink:href="#m1fafa808ee" y="143.1"/>
      </g>
     </g>
     <g id="text_1">
      <!-- −10 -->
      <defs>
       <path d="M 10.59375 35.5 
L 73.1875 35.5 
L 73.1875 27.203125 
L 10.59375 27.203125 
z
" id="DejaVuSans-8722"/>
       <path d="M 12.40625 8.296875 
L 28.515625 8.296875 
L 28.515625 63.921875 
L 10.984375 60.40625 
L 10.984375 69.390625 
L 28.421875 72.90625 
L 38.28125 72.90625 
L 38.28125 8.296875 
L 54.390625 8.296875 
L 54.390625 0 
L 12.40625 0 
z
" id="DejaVuSans-49"/>
       <path d="M 31.78125 66.40625 
Q 24.171875 66.40625 20.328125 58.90625 
Q 16.5 51.421875 16.5 36.375 
Q 16.5 21.390625 20.328125 13.890625 
Q 24.171875 6.390625 31.78125 6.390625 
Q 39.453125 6.390625 43.28125 13.890625 
Q 47.125 21.390625 47.125 36.375 
Q 47.125 51.421875 43.28125 58.90625 
Q 39.453125 66.40625 31.78125 66.40625 
z
M 31.78125 74.21875 
Q 44.046875 74.21875 50.515625 64.515625 
Q 56.984375 54.828125 56.984375 36.375 
Q 56.984375 17.96875 50.515625 8.265625 
Q 44.046875 -1.421875 31.78125 -1.421875 
Q 19.53125 -1.421875 13.0625 8.265625 
Q 6.59375 17.96875 6.59375 36.375 
Q 6.59375 54.828125 13.0625 64.515625 
Q 19.53125 74.21875 31.78125 74.21875 
z
" id="DejaVuSans-48"/>
      </defs>
      <g transform="translate(40.945241 157.698438)scale(0.1 -0.1)">
       <use xlink:href="#DejaVuSans-8722"/>
       <use x="83.789062" xlink:href="#DejaVuSans-49"/>
       <use x="147.412109" xlink:href="#DejaVuSans-48"/>
      </g>
     </g>
    </g>
    <g id="xtick_2">
     <g id="line2d_2">
      <g>
       <use style="stroke:#000000;stroke-width:0.8;" x="95.883949" xlink:href="#m1fafa808ee" y="143.1"/>
      </g>
     </g>
     <g id="text_2">
      <!-- −5 -->
      <defs>
       <path d="M 10.796875 72.90625 
L 49.515625 72.90625 
L 49.515625 64.59375 
L 19.828125 64.59375 
L 19.828125 46.734375 
Q 21.96875 47.46875 24.109375 47.828125 
Q 26.265625 48.1875 28.421875 48.1875 
Q 40.625 48.1875 47.75 41.5 
Q 54.890625 34.8125 54.890625 23.390625 
Q 54.890625 11.625 47.5625 5.09375 
Q 40.234375 -1.421875 26.90625 -1.421875 
Q 22.3125 -1.421875 17.546875 -0.640625 
Q 12.796875 0.140625 7.71875 1.703125 
L 7.71875 11.625 
Q 12.109375 9.234375 16.796875 8.0625 
Q 21.484375 6.890625 26.703125 6.890625 
Q 35.15625 6.890625 40.078125 11.328125 
Q 45.015625 15.765625 45.015625 23.390625 
Q 45.015625 31 40.078125 35.4375 
Q 35.15625 39.890625 26.703125 39.890625 
Q 22.75 39.890625 18.8125 39.015625 
Q 14.890625 38.140625 10.796875 36.28125 
z
" id="DejaVuSans-53"/>
      </defs>
      <g transform="translate(88.512855 157.698438)scale(0.1 -0.1)">
       <use xlink:href="#DejaVuSans-8722"/>
       <use x="83.789062" xlink:href="#DejaVuSans-53"/>
      </g>
     </g>
    </g>
    <g id="xtick_3">
     <g id="line2d_3">
      <g>
       <use style="stroke:#000000;stroke-width:0.8;" x="140.270312" xlink:href="#m1fafa808ee" y="143.1"/>
      </g>
     </g>
     <g id="text_3">
      <!-- 0 -->
      <g transform="translate(137.089062 157.698438)scale(0.1 -0.1)">
       <use xlink:href="#DejaVuSans-48"/>
      </g>
     </g>
    </g>
    <g id="xtick_4">
     <g id="line2d_4">
      <g>
       <use style="stroke:#000000;stroke-width:0.8;" x="184.656676" xlink:href="#m1fafa808ee" y="143.1"/>
      </g>
     </g>
     <g id="text_4">
      <!-- 5 -->
      <g transform="translate(181.475426 157.698438)scale(0.1 -0.1)">
       <use xlink:href="#DejaVuSans-53"/>
      </g>
     </g>
    </g>
    <g id="xtick_5">
     <g id="line2d_5">
      <g>
       <use style="stroke:#000000;stroke-width:0.8;" x="229.04304" xlink:href="#m1fafa808ee" y="143.1"/>
      </g>
     </g>
     <g id="text_5">
      <!-- 10 -->
      <g transform="translate(222.68054 157.698438)scale(0.1 -0.1)">
       <use xlink:href="#DejaVuSans-49"/>
       <use x="63.623047" xlink:href="#DejaVuSans-48"/>
      </g>
     </g>
    </g>
    <g id="text_6">
     <!-- x -->
     <defs>
      <path d="M 54.890625 54.6875 
L 35.109375 28.078125 
L 55.90625 0 
L 45.3125 0 
L 29.390625 21.484375 
L 13.484375 0 
L 2.875 0 
L 24.125 28.609375 
L 4.6875 54.6875 
L 15.28125 54.6875 
L 29.78125 35.203125 
L 44.28125 54.6875 
z
" id="DejaVuSans-120"/>
     </defs>
     <g transform="translate(137.310937 171.376563)scale(0.1 -0.1)">
      <use xlink:href="#DejaVuSans-120"/>
     </g>
    </g>
   </g>
   <g id="matplotlib.axis_2">
    <g id="ytick_1">
     <g id="line2d_6">
      <defs>
       <path d="M 0 0 
L -3.5 0 
" id="m2901e940fd" style="stroke:#000000;stroke-width:0.8;"/>
      </defs>
      <g>
       <use style="stroke:#000000;stroke-width:0.8;" x="42.620312" xlink:href="#m2901e940fd" y="119.411596"/>
      </g>
     </g>
     <g id="text_7">
      <!-- −5 -->
      <g transform="translate(20.878125 123.210815)scale(0.1 -0.1)">
       <use xlink:href="#DejaVuSans-8722"/>
       <use x="83.789062" xlink:href="#DejaVuSans-53"/>
      </g>
     </g>
    </g>
    <g id="ytick_2">
     <g id="line2d_7">
      <g>
       <use style="stroke:#000000;stroke-width:0.8;" x="42.620312" xlink:href="#m2901e940fd" y="75.15"/>
      </g>
     </g>
     <g id="text_8">
      <!-- 0 -->
      <g transform="translate(29.257812 78.949219)scale(0.1 -0.1)">
       <use xlink:href="#DejaVuSans-48"/>
      </g>
     </g>
    </g>
    <g id="ytick_3">
     <g id="line2d_8">
      <g>
       <use style="stroke:#000000;stroke-width:0.8;" x="42.620312" xlink:href="#m2901e940fd" y="30.888404"/>
      </g>
     </g>
     <g id="text_9">
      <!-- 5 -->
      <g transform="translate(29.257812 34.687623)scale(0.1 -0.1)">
       <use xlink:href="#DejaVuSans-53"/>
      </g>
     </g>
    </g>
    <g id="text_10">
     <!-- f(x) -->
     <defs>
      <path d="M 37.109375 75.984375 
L 37.109375 68.5 
L 28.515625 68.5 
Q 23.6875 68.5 21.796875 66.546875 
Q 19.921875 64.59375 19.921875 59.515625 
L 19.921875 54.6875 
L 34.71875 54.6875 
L 34.71875 47.703125 
L 19.921875 47.703125 
L 19.921875 0 
L 10.890625 0 
L 10.890625 47.703125 
L 2.296875 47.703125 
L 2.296875 54.6875 
L 10.890625 54.6875 
L 10.890625 58.5 
Q 10.890625 67.625 15.140625 71.796875 
Q 19.390625 75.984375 28.609375 75.984375 
z
" id="DejaVuSans-102"/>
      <path d="M 31 75.875 
Q 24.46875 64.65625 21.28125 53.65625 
Q 18.109375 42.671875 18.109375 31.390625 
Q 18.109375 20.125 21.3125 9.0625 
Q 24.515625 -2 31 -13.1875 
L 23.1875 -13.1875 
Q 15.875 -1.703125 12.234375 9.375 
Q 8.59375 20.453125 8.59375 31.390625 
Q 8.59375 42.28125 12.203125 53.3125 
Q 15.828125 64.359375 23.1875 75.875 
z
" id="DejaVuSans-40"/>
      <path d="M 8.015625 75.875 
L 15.828125 75.875 
Q 23.140625 64.359375 26.78125 53.3125 
Q 30.421875 42.28125 30.421875 31.390625 
Q 30.421875 20.453125 26.78125 9.375 
Q 23.140625 -1.703125 15.828125 -13.1875 
L 8.015625 -13.1875 
Q 14.5 -2 17.703125 9.0625 
Q 20.90625 20.125 20.90625 31.390625 
Q 20.90625 42.671875 17.703125 53.65625 
Q 14.5 64.65625 8.015625 75.875 
z
" id="DejaVuSans-41"/>
     </defs>
     <g transform="translate(14.798437 83.771094)rotate(-90)scale(0.1 -0.1)">
      <use xlink:href="#DejaVuSans-102"/>
      <use x="35.205078" xlink:href="#DejaVuSans-40"/>
      <use x="74.21875" xlink:href="#DejaVuSans-120"/>
      <use x="133.398438" xlink:href="#DejaVuSans-41"/>
     </g>
    </g>
   </g>
   <g id="line2d_9">
    <path clip-path="url(#p102716f929)" d="M 51.497585 75.15 
L 54.515858 61.507482 
L 57.090267 50.885025 
L 59.309585 42.622094 
L 61.351358 35.837132 
L 63.215585 30.377153 
L 64.99104 25.861639 
L 66.588949 22.386209 
L 68.098085 19.624667 
L 69.518449 17.490892 
L 70.85004 15.899772 
L 72.092858 14.769323 
L 73.246903 14.022221 
L 74.312176 13.586847 
L 75.377449 13.390552 
L 76.442722 13.427543 
L 77.507994 13.691169 
L 78.66204 14.223829 
L 79.816085 15.003169 
L 81.058903 16.105104 
L 82.479267 17.678383 
L 83.988403 19.689963 
L 85.675085 22.313916 
L 87.628085 25.787159 
L 89.847403 30.206605 
L 92.599358 36.214766 
L 96.594131 45.535711 
L 102.719449 59.794344 
L 105.648949 66.040035 
L 108.134585 70.834191 
L 110.353903 74.63456 
L 112.306903 77.556079 
L 114.171131 79.946414 
L 115.857812 81.757913 
L 117.455722 83.158276 
L 118.964858 84.195922 
L 120.385222 84.920387 
L 121.805585 85.403653 
L 123.225949 85.651422 
L 124.646312 85.67174 
L 126.066676 85.474901 
L 127.575812 85.041746 
L 129.173722 84.350543 
L 130.949176 83.330131 
L 132.902176 81.942544 
L 135.210267 80.014888 
L 138.22854 77.174086 
L 146.04054 69.663818 
L 148.348631 67.823793 
L 150.301631 66.531906 
L 152.077085 65.614111 
L 153.674994 65.026674 
L 155.184131 64.700263 
L 156.604494 64.610579 
L 158.024858 64.743475 
L 159.445222 65.108131 
L 160.865585 65.711433 
L 162.285949 66.55788 
L 163.795085 67.725879 
L 165.392994 69.263455 
L 167.079676 71.216922 
L 168.855131 73.628383 
L 170.808131 76.680039 
L 172.938676 80.448155 
L 175.33554 85.168807 
L 178.087494 91.099236 
L 181.815949 99.711379 
L 189.272858 117.05287 
L 191.93604 122.623915 
L 194.155358 126.7735 
L 196.019585 129.822241 
L 197.706267 132.178715 
L 199.215403 133.924759 
L 200.635767 135.226988 
L 201.878585 136.076171 
L 203.032631 136.608831 
L 204.097903 136.872457 
L 205.163176 136.909448 
L 206.228449 136.713153 
L 207.293722 136.277779 
L 208.358994 135.598433 
L 209.51304 134.582593 
L 210.667085 133.272048 
L 211.909903 131.528418 
L 213.241494 129.276682 
L 214.661858 126.438769 
L 216.259767 122.713848 
L 217.946449 118.183244 
L 219.721903 112.772044 
L 221.674903 106.096779 
L 223.805449 98.012836 
L 226.202312 88.022898 
L 228.954267 75.566737 
L 228.954267 75.566737 
" style="fill:none;stroke:#1f77b4;stroke-linecap:square;stroke-width:1.5;"/>
   </g>
   <g id="line2d_10">
    <path clip-path="url(#p102716f929)" d="M 229.04304 75.15 
L 145.376715 70.243883 
L 129.559103 84.150541 
L 120.033698 84.763719 
L 128.344441 84.73779 
L 120.680219 85.040449 
L 127.613192 85.028228 
L 121.143038 85.207934 
L 127.097541 85.203029 
L 121.500619 85.319975 
L 126.704367 85.319116 
" style="fill:none;stroke:#ff7f0e;stroke-linecap:square;stroke-width:1.5;"/>
    <defs>
     <path d="M 0 3 
C 0.795609 3 1.55874 2.683901 2.12132 2.12132 
C 2.683901 1.55874 3 0.795609 3 0 
C 3 -0.795609 2.683901 -1.55874 2.12132 -2.12132 
C 1.55874 -2.683901 0.795609 -3 0 -3 
C -0.795609 -3 -1.55874 -2.683901 -2.12132 -2.12132 
C -2.683901 -1.55874 -3 -0.795609 -3 0 
C -3 0.795609 -2.683901 1.55874 -2.12132 2.12132 
C -1.55874 2.683901 -0.795609 3 0 3 
z
" id="m1f97ff3ee9" style="stroke:#ff7f0e;"/>
    </defs>
    <g clip-path="url(#p102716f929)">
     <use style="fill:#ff7f0e;stroke:#ff7f0e;" x="229.04304" xlink:href="#m1f97ff3ee9" y="75.15"/>
     <use style="fill:#ff7f0e;stroke:#ff7f0e;" x="145.376715" xlink:href="#m1f97ff3ee9" y="70.243883"/>
     <use style="fill:#ff7f0e;stroke:#ff7f0e;" x="129.559103" xlink:href="#m1f97ff3ee9" y="84.150541"/>
     <use style="fill:#ff7f0e;stroke:#ff7f0e;" x="120.033698" xlink:href="#m1f97ff3ee9" y="84.763719"/>
     <use style="fill:#ff7f0e;stroke:#ff7f0e;" x="128.344441" xlink:href="#m1f97ff3ee9" y="84.73779"/>
     <use style="fill:#ff7f0e;stroke:#ff7f0e;" x="120.680219" xlink:href="#m1f97ff3ee9" y="85.040449"/>
     <use style="fill:#ff7f0e;stroke:#ff7f0e;" x="127.613192" xlink:href="#m1f97ff3ee9" y="85.028228"/>
     <use style="fill:#ff7f0e;stroke:#ff7f0e;" x="121.143038" xlink:href="#m1f97ff3ee9" y="85.207934"/>
     <use style="fill:#ff7f0e;stroke:#ff7f0e;" x="127.097541" xlink:href="#m1f97ff3ee9" y="85.203029"/>
     <use style="fill:#ff7f0e;stroke:#ff7f0e;" x="121.500619" xlink:href="#m1f97ff3ee9" y="85.319975"/>
     <use style="fill:#ff7f0e;stroke:#ff7f0e;" x="126.704367" xlink:href="#m1f97ff3ee9" y="85.319116"/>
    </g>
   </g>
   <g id="patch_3">
    <path d="M 42.620312 143.1 
L 42.620312 7.2 
" style="fill:none;stroke:#000000;stroke-linecap:square;stroke-linejoin:miter;stroke-width:0.8;"/>
   </g>
   <g id="patch_4">
    <path d="M 237.920313 143.1 
L 237.920313 7.2 
" style="fill:none;stroke:#000000;stroke-linecap:square;stroke-linejoin:miter;stroke-width:0.8;"/>
   </g>
   <g id="patch_5">
    <path d="M 42.620312 143.1 
L 237.920313 143.1 
" style="fill:none;stroke:#000000;stroke-linecap:square;stroke-linejoin:miter;stroke-width:0.8;"/>
   </g>
   <g id="patch_6">
    <path d="M 42.620312 7.2 
L 237.920313 7.2 
" style="fill:none;stroke:#000000;stroke-linecap:square;stroke-linejoin:miter;stroke-width:0.8;"/>
   </g>
  </g>
 </g>
 <defs>
  <clipPath id="p102716f929">
   <rect height="135.9" width="195.3" x="42.620312" y="7.2"/>
  </clipPath>
 </defs>
</svg>
